<svg width="286" height="313" viewBox="0 0 286 313" fill="none" xmlns="http://www.w3.org/2000/svg">
<path d="M80.8744 150.812C105.035 150.812 124.622 131.226 124.622 107.065C124.622 82.9036 105.035 63.3172 80.8744 63.3172C56.7133 63.3172 37.127 82.9036 37.127 107.065C37.127 131.226 56.7133 150.812 80.8744 150.812Z" stroke="#A8A8A8" stroke-miterlimit="10" stroke-dasharray="12.07 12.07"/>
<path d="M188.601 70.732C195.036 70.8115 201.497 72.1885 207.323 74.9426C211.455 76.9022 215.241 79.4444 218.234 82.6752C224.245 89.1367 226.628 98.617 222.524 105.714C219.081 111.646 211.534 115.909 211.455 122.742C211.349 130.713 221.438 136.009 230.256 137.651C239.048 139.293 248.926 139.61 255.546 145.277C261.24 150.15 262.749 157.962 260.869 164.529C258.989 171.07 254.196 176.526 248.873 181.186C235.526 192.865 218.393 200.518 200.835 206.582C163.735 219.373 123.483 225.596 82.9664 224.828C72.8505 224.642 61.5429 223.557 54.4458 216.724C47.2958 209.839 47.0575 198.955 51.7447 191.064C56.4319 183.172 65.0384 177.876 74.0421 174.036C83.0458 170.17 92.7116 167.495 101.45 163.232C108.071 160.028 114.85 153.91 112.043 147.343C110.057 142.682 104.178 140.431 99.0142 138.525C91.7318 135.85 84.4493 132.725 78.491 128.011C72.5327 123.298 67.9514 116.757 67.5012 109.845C67.0775 103.384 70.2818 97.2135 75.0219 92.5792C79.7621 87.945 85.9323 84.6878 92.2614 81.8807C117.26 70.8379 171.203 70.5202 188.601 70.732Z" fill="#F7F7F7"/>
<path d="M181.054 119.67C181.61 117.313 184.417 112.917 186.88 112.785C186.721 113.606 186.456 114.638 186.88 115.433C187.304 116.201 181.054 119.67 181.054 119.67Z" fill="#E2E2E2"/>
<g clip-path="url(#clip0)">
<path d="M149.165 313C190.129 313 223.338 307.887 223.338 301.58C223.338 295.274 190.129 290.161 149.165 290.161C108.201 290.161 74.9927 295.274 74.9927 301.58C74.9927 307.887 108.201 313 149.165 313Z" fill="#F7F7F7"/>
<path d="M147.202 128.38C147.202 128.38 149.012 136.666 142.856 139.909C142.856 139.909 144.305 158.283 153.719 158.644C163.134 159.004 163.134 148.916 163.134 148.916L161.686 143.512C161.686 143.512 154.806 139.549 159.151 131.983L147.202 128.38Z" fill="#A0616A"/>
<path d="M154.987 132.883C164.386 132.883 172.006 125.302 172.006 115.95C172.006 106.598 164.386 99.0169 154.987 99.0169C145.587 99.0169 137.968 106.598 137.968 115.95C137.968 125.302 145.587 132.883 154.987 132.883Z" fill="#2F2E41"/>
<path d="M137.062 166.93V187.106L167.117 186.025L164.945 166.21L137.062 166.93Z" fill="#A0616A"/>
<path d="M155.168 134.144C161.167 134.144 166.031 129.305 166.031 123.336C166.031 117.367 161.167 112.527 155.168 112.527C149.168 112.527 144.304 117.367 144.304 123.336C144.304 129.305 149.168 134.144 155.168 134.144Z" fill="#A0616A"/>
<path d="M141.77 139.909C141.77 139.909 135.614 138.828 133.441 139.909C131.269 140.99 128.734 140.629 126.199 151.078L121.492 172.695C121.492 172.695 120.767 179.18 126.199 178.459C131.631 177.739 131.269 168.371 131.269 168.371L134.89 160.085L141.408 152.879L141.77 139.909Z" fill="#A0616A"/>
<path d="M162.41 144.232C162.41 144.232 171.101 145.313 171.825 149.997C172.549 154.68 168.566 173.775 168.566 173.775L162.41 167.651L165.669 155.761L162.41 144.232Z" fill="#A0616A"/>
<path d="M140.14 139.729L140.321 146.394L135.252 157.202L136.338 170.533L165.395 170.62L165.307 164.408C165.307 164.408 169.29 159.364 167.118 155.041C164.945 150.717 163.315 144.052 163.315 144.052L160.419 142.251C160.419 142.251 165.307 153.6 155.168 151.798C145.029 149.997 144.486 138.648 144.486 138.648L140.14 139.729Z" fill="#D0CDE1"/>
<path d="M131.631 212.326L126.561 240.788L120.767 282.22L118.233 286.904L120.405 291.588L126.561 288.705L129.096 277.537C129.096 277.537 137.787 267.088 136.338 253.758L151.909 216.649L131.631 212.326Z" fill="#A0616A"/>
<path d="M156.616 215.208L160.237 250.515C160.237 250.515 159.513 260.243 161.686 268.89C163.858 277.537 165.307 292.668 165.307 292.668H172.549L171.101 248.354L175.808 212.326L156.616 215.208Z" fill="#A0616A"/>
<path d="M151.547 182.782C151.547 182.782 136.338 181.702 136.338 183.503V187.106C136.338 187.106 133.441 191.79 133.803 196.113C134.166 200.436 120.043 210.164 129.096 214.487C138.149 218.811 150.098 220.252 151.909 218.811C153.719 217.369 154.806 211.605 154.806 211.605C154.806 211.605 154.806 218.09 158.065 218.45C161.324 218.811 180.878 214.848 180.878 211.605C180.878 208.362 166.387 179.36 166.387 179.36C166.387 179.36 155.892 183.143 151.547 182.782Z" fill="#2F2E41"/>
<path d="M120.043 287.264C120.043 287.264 118.595 284.742 117.146 286.544C115.698 288.345 110.266 292.668 110.266 292.668C110.266 292.668 96.8682 296.271 105.921 301.675C105.921 301.675 113.887 301.675 117.146 299.154C120.405 296.632 123.664 297.712 123.664 297.712C123.664 297.712 128.734 297.352 129.096 295.19C129.458 293.029 127.199 285.895 127.199 285.895C127.199 285.895 124.751 289.066 120.043 287.264Z" fill="#2F2E41"/>
<path d="M168.204 289.426C168.204 289.426 163.858 288.345 163.858 289.426C163.858 290.507 157.703 296.992 162.772 299.874C167.842 302.756 168.566 302.036 168.928 304.918C169.29 307.8 178.705 309.962 180.153 308.161C181.602 306.359 182.688 303.117 180.878 301.675C179.067 300.234 173.273 291.227 173.273 289.426C173.273 287.625 168.204 289.426 168.204 289.426Z" fill="#2F2E41"/>
<path d="M159.427 149.574C160.129 149.574 160.698 149.291 160.698 148.942C160.698 148.593 160.129 148.309 159.427 148.309C158.724 148.309 158.155 148.593 158.155 148.942C158.155 149.291 158.724 149.574 159.427 149.574Z" fill="#3F3D56"/>
<path d="M159.571 151.615C161.007 151.615 162.171 151.023 162.171 150.293C162.171 149.563 161.007 148.971 159.571 148.971C158.135 148.971 156.971 149.563 156.971 150.293C156.971 151.023 158.135 151.615 159.571 151.615Z" fill="#6C63FF"/>
<path d="M162.633 151.098H156.393V155.64H162.633V151.098Z" fill="#6C63FF"/>
<path d="M166.88 158.198H152.088V180.447H166.88V158.198Z" fill="#6C63FF"/>
<path d="M167.545 157.939C167.545 160.13 163.917 159.377 159.513 159.377C155.109 159.377 151.366 160.073 151.366 157.882C151.366 155.691 155.109 153.397 159.513 153.397C163.917 153.397 167.545 155.748 167.545 157.939Z" fill="#6C63FF"/>
<path d="M167.545 160.296H151.539V162.021H167.545V160.296Z" fill="#3F3D56"/>
<path d="M167.661 176.969H151.655V178.694H167.661V176.969Z" fill="#3F3D56"/>
<path d="M167.545 169.495H151.539V172.945H167.545V169.495Z" fill="#3F3D56"/>
<path d="M167.43 179.671C167.43 180.401 167.663 182.488 159.687 182.488C150.672 182.488 151.424 180.287 151.424 179.556C151.424 178.826 155.41 179.844 159.687 179.844C163.963 179.844 167.43 178.941 167.43 179.671Z" fill="#6C63FF"/>
<path d="M163.154 150.293H155.757V152.765H163.154V150.293Z" fill="#3F3D56"/>
<path opacity="0.1" d="M153.764 163.487H152.781V168.891H153.764V163.487Z" fill="white"/>
<path opacity="0.1" d="M153.764 173.778H152.781V175.791H153.764V173.778Z" fill="white"/>
<path d="M170.014 169.452C170.014 169.452 163.134 160.445 163.496 166.93C163.858 173.415 167.842 176.658 168.566 176.658C169.29 176.658 172.187 175.937 170.014 169.452Z" fill="#A0616A"/>
<path opacity="0.1" d="M137.062 176.39C137.605 176.478 146.296 173.235 146.296 173.235L151.728 172.514L137.062 178.617L137.062 176.39Z" fill="black"/>
<path d="M125.837 170.173C125.837 170.173 128.734 168.371 134.528 169.092L145.753 166.209C145.753 166.209 156.254 160.085 160.237 167.651C164.221 175.217 145.391 172.695 145.391 172.695C145.391 172.695 132.717 182.782 125.113 177.378L125.837 170.173Z" fill="#A0616A"/>
<path d="M139.416 108.745C142.216 108.745 144.486 106.486 144.486 103.701C144.486 100.915 142.216 98.6566 139.416 98.6566C136.616 98.6566 134.347 100.915 134.347 103.701C134.347 106.486 136.616 108.745 139.416 108.745Z" fill="#2F2E41"/>
<path d="M170.558 107.303C173.357 107.303 175.627 105.045 175.627 102.259C175.627 99.4738 173.357 97.2155 170.558 97.2155C167.758 97.2155 165.488 99.4738 165.488 102.259C165.488 105.045 167.758 107.303 170.558 107.303Z" fill="#2F2E41"/>
<path d="M165.126 100.098C165.126 98.8537 165.588 97.6536 166.424 96.7281C167.259 95.8026 168.409 95.2169 169.652 95.0836C168.944 95.0067 168.228 95.079 167.55 95.2959C166.872 95.5128 166.248 95.8694 165.717 96.3425C165.187 96.8155 164.763 97.3945 164.473 98.0415C164.182 98.6885 164.032 99.3892 164.032 100.098C164.032 100.806 164.182 101.507 164.473 102.154C164.763 102.801 165.187 103.38 165.717 103.853C166.248 104.326 166.872 104.683 167.55 104.9C168.228 105.116 168.944 105.189 169.652 105.112C168.409 104.979 167.259 104.393 166.424 103.467C165.588 102.542 165.126 101.342 165.126 100.098Z" fill="#2F2E41"/>
<path d="M133.751 107.781C132.877 106.892 132.363 105.713 132.308 104.47C132.254 103.227 132.663 102.008 133.458 101.047C133.315 101.159 133.179 101.278 133.049 101.404C132.089 102.34 131.542 103.618 131.529 104.955C131.515 106.292 132.036 107.58 132.977 108.536C133.918 109.491 135.201 110.035 136.545 110.049C137.889 110.063 139.184 109.545 140.145 108.61C140.274 108.483 140.396 108.35 140.512 108.21C139.53 108.981 138.297 109.363 137.049 109.284C135.801 109.204 134.627 108.669 133.751 107.781Z" fill="#2F2E41"/>
<path d="M154.987 108.024C148.987 108.024 144.124 110.847 144.124 114.329C144.124 115.887 145.101 117.311 146.715 118.411L148.806 116.903L148.238 119.265C148.474 119.374 148.714 119.479 148.966 119.577L152.09 115.95V120.405C153.048 120.558 154.017 120.634 154.987 120.634C160.986 120.634 165.85 117.811 165.85 114.329C165.85 110.847 160.986 108.024 154.987 108.024Z" fill="#2F2E41"/>
<path d="M165.488 102.259C165.488 102.259 164.701 105.862 169.621 107.303L165.488 102.259Z" fill="#6C63FF"/>
<path d="M144.124 102.915C144.124 102.915 145.934 106.943 140.502 108.745L144.124 102.915Z" fill="#6C63FF"/>
<path d="M217.935 279.826C218.889 278.77 219.57 277.498 219.919 276.121C220.268 274.745 220.275 273.304 219.939 271.924C219.603 270.544 218.934 269.267 217.99 268.202C217.046 267.137 215.856 266.316 214.522 265.812C215.71 265.128 216.638 264.074 217.162 262.812C217.686 261.55 217.778 260.152 217.422 258.833C217.066 257.515 216.283 256.349 215.194 255.519C214.105 254.688 212.772 254.237 211.399 254.237C210.027 254.237 208.693 254.688 207.604 255.519C206.515 256.349 205.732 257.515 205.377 258.833C205.021 260.152 205.112 261.55 205.637 262.812C206.161 264.074 207.089 265.128 208.277 265.812C206.943 266.316 205.752 267.137 204.808 268.202C203.865 269.267 203.196 270.544 202.86 271.924C202.524 273.304 202.53 274.745 202.879 276.121C203.229 277.498 203.909 278.77 204.863 279.826C202.636 281.234 200.928 283.323 199.996 285.779C199.065 288.236 198.959 290.926 199.696 293.447C200.433 295.969 201.972 298.184 204.083 299.76C206.193 301.336 208.761 302.188 211.399 302.188C214.038 302.188 216.606 301.336 218.716 299.76C220.827 298.184 222.366 295.969 223.103 293.447C223.84 290.926 223.734 288.236 222.802 285.779C221.871 283.323 220.163 281.234 217.935 279.826Z" fill="#817FAB"/>
<path d="M105.459 208.705C110.47 208.705 114.533 204.663 114.533 199.677C114.533 194.691 110.47 190.648 105.459 190.648C100.448 190.648 96.385 194.691 96.385 199.677C96.385 204.663 100.448 208.705 105.459 208.705Z" fill="#6C63FF"/>
<path d="M103.505 207.058C104.39 206.345 103.83 204.196 102.253 202.259C100.677 200.321 98.6808 199.328 97.7955 200.041C96.9103 200.754 97.4707 202.903 99.0473 204.841C100.624 206.779 102.62 207.771 103.505 207.058Z" fill="white"/>
<path d="M46.1058 182.064C51.1172 182.064 55.1798 178.022 55.1798 173.036C55.1798 168.05 51.1172 164.008 46.1058 164.008C41.0943 164.008 37.0317 168.05 37.0317 173.036C37.0317 178.022 41.0943 182.064 46.1058 182.064Z" fill="#3F3D56"/>
<path d="M42.1235 171.968C42.7758 169.561 42.4131 167.37 41.3134 167.075C40.2138 166.78 38.7934 168.492 38.1411 170.9C37.4888 173.307 37.8514 175.497 38.9511 175.792C40.0508 176.087 41.4711 174.375 42.1235 171.968Z" fill="white"/>
<path d="M32.6564 125.609C35.7795 125.609 38.3113 123.09 38.3113 119.982C38.3113 116.875 35.7795 114.356 32.6564 114.356C29.5333 114.356 27.0015 116.875 27.0015 119.982C27.0015 123.09 29.5333 125.609 32.6564 125.609Z" fill="#3F3D56"/>
<path d="M30.1747 119.317C30.5812 117.817 30.3552 116.451 29.6699 116.268C28.9845 116.084 28.0994 117.151 27.6929 118.651C27.2863 120.151 27.5124 121.516 28.1977 121.7C28.883 121.884 29.7681 120.817 30.1747 119.317Z" fill="white"/>
<path d="M91.2469 264.797C94.3701 264.797 96.9018 262.278 96.9018 259.171C96.9018 256.063 94.3701 253.544 91.2469 253.544C88.1238 253.544 85.592 256.063 85.592 259.171C85.592 262.278 88.1238 264.797 91.2469 264.797Z" fill="#3F3D56"/>
<path d="M88.766 258.505C89.1725 257.005 88.9465 255.64 88.2612 255.456C87.5759 255.272 86.6907 256.339 86.2842 257.839C85.8777 259.34 86.1037 260.705 86.789 260.889C87.4743 261.072 88.3594 260.005 88.766 258.505Z" fill="white"/>
<path d="M266.926 202.173C271.938 202.173 276 198.131 276 193.145C276 188.159 271.938 184.117 266.926 184.117C261.915 184.117 257.852 188.159 257.852 193.145C257.852 198.131 261.915 202.173 266.926 202.173Z" fill="#3F3D56"/>
<path d="M260.739 197.659C261.878 197.659 262.801 195.638 262.801 193.145C262.801 190.652 261.878 188.631 260.739 188.631C259.6 188.631 258.677 190.652 258.677 193.145C258.677 195.638 259.6 197.659 260.739 197.659Z" fill="white"/>
<path d="M237.642 144.31C242.653 144.31 246.716 140.268 246.716 135.282C246.716 130.296 242.653 126.254 237.642 126.254C232.63 126.254 228.568 130.296 228.568 135.282C228.568 140.268 232.63 144.31 237.642 144.31Z" fill="#6C63FF"/>
<path d="M235.222 131.959C237.251 130.496 238.355 128.567 237.687 127.649C237.018 126.731 234.832 127.173 232.802 128.635C230.773 130.098 229.67 132.027 230.338 132.945C231.006 133.863 233.193 133.421 235.222 131.959Z" fill="white"/>
<path d="M260.739 91.2531C263.862 91.2531 266.394 88.7341 266.394 85.6268C266.394 82.5194 263.862 80.0004 260.739 80.0004C257.616 80.0004 255.084 82.5194 255.084 85.6268C255.084 88.7341 257.616 91.2531 260.739 91.2531Z" fill="#6C63FF"/>
<path d="M259.231 83.5556C260.496 82.6442 261.184 81.4417 260.767 80.8697C260.351 80.2978 258.988 80.573 257.723 81.4845C256.459 82.3959 255.771 83.5984 256.188 84.1704C256.604 84.7423 257.967 84.4671 259.231 83.5556Z" fill="white"/>
<path d="M218.256 236.115C221.379 236.115 223.911 233.596 223.911 230.489C223.911 227.382 221.379 224.863 218.256 224.863C215.133 224.863 212.601 227.382 212.601 230.489C212.601 233.596 215.133 236.115 218.256 236.115Z" fill="#3F3D56"/>
<path d="M216.748 228.418C218.013 227.506 218.7 226.304 218.284 225.732C217.868 225.16 216.505 225.435 215.24 226.347C213.976 227.258 213.288 228.461 213.704 229.033C214.121 229.604 215.484 229.329 216.748 228.418Z" fill="white"/>
</g>
<defs>
<clipPath id="clip0">
<rect width="249" height="233" fill="white" transform="translate(27 80)"/>
</clipPath>
</defs>
</svg>
