<svg width="202" height="145" viewBox="0 0 202 145" fill="none" xmlns="http://www.w3.org/2000/svg">
<path d="M128.69 118.95C131.425 117.794 133.852 115.599 135.893 113.519C141.363 107.856 144.753 100.499 146.563 92.8726C148.181 85.9778 148.527 78.8904 148.219 71.8415C148.181 71.2637 147.256 71.2252 147.295 71.8415C148.065 87.6726 144.907 107.047 130.77 116.677C129.962 117.216 129.153 117.756 128.267 118.141C127.689 118.372 128.151 119.181 128.69 118.95Z" fill="#55ACEE"/>
<path d="M146.679 90.2149C146.679 90.2149 147.565 85.0919 154.344 84.283C154.382 84.283 151.879 90.3304 146.679 90.2149Z" fill="#55ACEE"/>
<path d="M144.483 97.7645C144.483 97.7645 146.563 92.9882 153.342 93.7971C153.304 93.7971 149.49 99.1126 144.483 97.7645Z" fill="#55ACEE"/>
<path d="M141.594 104.467C141.594 104.467 144.676 100.268 151.108 102.579C151.108 102.579 146.178 106.893 141.594 104.467Z" fill="#55ACEE"/>
<path d="M147.719 82.2416C147.719 82.2416 148.604 77.1956 155.268 76.4252C155.268 76.4252 152.841 82.3957 147.719 82.2416Z" fill="#55ACEE"/>
<path d="M147.834 73.4978C147.834 73.4978 144.021 70.0697 146.91 63.9837C146.91 64.0223 150.646 69.2223 147.834 73.4978Z" fill="#55ACEE"/>
<path d="M147.834 78.6978C147.834 78.6978 142.788 77.7734 142.056 71.1097C142.095 71.0711 148.027 73.5749 147.834 78.6978Z" fill="#55ACEE"/>
<path d="M147.333 86.363C147.333 86.363 142.287 85.4386 141.556 78.7749C141.594 78.7749 147.526 81.2401 147.333 86.363Z" fill="#55ACEE"/>
<path d="M146.024 93.566C146.024 93.566 141.055 92.2949 140.824 85.5927C140.824 85.5541 146.563 88.443 146.024 93.566Z" fill="#55ACEE"/>
<path d="M143.751 100.73C143.751 100.73 138.782 99.4593 138.551 92.7571C138.551 92.7571 144.29 95.646 143.751 100.73Z" fill="#55ACEE"/>
<path d="M52.0771 118.95C52.0771 118.95 51.2682 123.418 51.0756 124.188C50.9215 124.804 50.4593 125.267 49.9971 125.729C49.843 125.883 49.7275 126.191 49.6504 126.422C49.5734 126.615 49.6119 126.846 49.7275 127.039C51.7689 130.313 56.0445 130.929 56.083 130.659C56.1601 130.159 55.3512 129.311 54.4267 128.964C53.5023 128.656 52.8089 127.809 52.5778 126.846C52.3852 126.076 52.3852 125.267 52.6164 124.496L53.6178 121.068L52.0771 118.95Z" fill="#B97A59"/>
<path d="M49.5734 119.45L50.5748 123.957C50.883 125.344 50.6904 126.769 50.0356 128.04C49.6504 128.733 49.9971 129.619 50.7289 129.889C53.1556 130.736 57.8163 132.393 58.0089 132.2C59.0874 131.314 56.2756 129.812 54.1956 128.271C52.8089 127.231 52.2697 122.301 52.1541 118.564L49.92 119.142C49.766 119.142 49.6119 119.258 49.5734 119.45Z" fill="#B97A59"/>
<path d="M53.7334 129.542C54.7348 129.889 55.8134 129.966 56.8148 130.12C56.9304 130.12 57.0459 130.197 57.123 130.236C58.0859 130.967 58.5867 131.738 58.0089 132.2C57.7778 132.393 52.2697 130.428 50.1512 129.696C49.6889 129.542 49.4963 129.003 49.7274 128.579L50.1512 127.809C51.2682 128.502 52.4623 129.119 53.7334 129.542Z" fill="#0B4870"/>
<path d="M50.6134 73.3052C48.0712 74.1912 46.4919 77.6578 47.6475 80.8934C48.3023 82.7808 51.4993 89.2904 54.6193 94.3363C55.8134 96.2623 55.9675 98.6889 54.9275 100.692C54.7734 101 54.6193 101.347 54.5038 101.693C54.003 103.388 52.6934 112.941 52.0386 119.296C52.3467 120.028 53.0015 120.953 53.6564 121.145C55.8904 115.406 59.2801 105.083 59.8193 103.273C60.1275 102.271 60.4356 101.154 60.6282 100.076C62.169 96.84 58.5482 81.3171 57.4697 78.2741C56.3141 75.0771 53.1171 72.4193 50.6134 73.3052Z" fill="#0B4870"/>
<path d="M52.1927 55.3171C54.4477 55.3171 56.2757 52.9545 56.2757 50.04C56.2757 47.1256 54.4477 44.763 52.1927 44.763C49.9377 44.763 48.1097 47.1256 48.1097 50.04C48.1097 52.9545 49.9377 55.3171 52.1927 55.3171Z" fill="#0B4870"/>
<path d="M51.2297 50.5793C51.1527 47.6519 48.803 45.1867 45.8756 45.0326C43.2949 44.8786 41.0608 46.4578 40.2134 48.7304C39.9052 49.5393 39.1349 50.04 38.2875 50.04C37.9408 50.04 37.5941 50.0786 37.2089 50.1556C35.0904 50.5793 33.3956 52.3897 33.203 54.5852C33.0104 56.5497 33.9349 58.283 35.3986 59.2845C36.0149 59.7082 36.4001 60.4015 36.4771 61.1719C36.9778 64.6386 40.1364 67.2193 43.7571 66.7956C46.8386 66.4489 49.3423 63.9067 49.6119 60.7867C49.766 58.8993 49.1112 57.1274 47.9556 55.8178C49.9201 54.9319 51.2682 52.8904 51.2297 50.5793Z" fill="#0B4870"/>
<path d="M52.1926 43.0297C52.1926 43.0297 54.5037 44.4934 54.1956 46.4193C54.1956 46.4193 55.4282 45.5334 55.6978 42.5675C55.9289 40.4875 52.1926 43.0297 52.1926 43.0297Z" fill="#0B4870"/>
<path d="M55.9289 53.3141C57.1615 53.9304 58.3941 54.4311 59.6652 54.7393C60.9364 55.0474 62.246 55.0474 63.5941 54.8548C64.9808 54.6622 66.406 54.2771 67.9467 54.0074C69.4875 53.7378 71.1053 53.6608 72.6075 53.8919C72.8771 53.9304 73.0697 54.2 73.0312 54.4696C72.9927 54.7008 72.8001 54.8934 72.569 54.8934C71.1053 54.9704 69.7571 55.24 68.3704 55.7408C67.0223 56.203 65.6356 56.8193 64.0949 57.2815C62.5541 57.7437 60.8208 57.9363 59.1645 57.7437C57.5082 57.5511 55.9289 57.0889 54.4267 56.4726C53.5408 56.1259 53.0786 55.086 53.4252 54.2C53.7719 53.3141 54.8119 52.8519 55.6978 53.1985C55.7363 53.1985 55.7749 53.2371 55.8134 53.2371L55.9289 53.3141Z" fill="#B97A59"/>
<path d="M54.7734 65.0238C55.6979 62.2504 57.5467 56.3571 57.3927 54.4697C57.2771 53.2371 56.2756 52.3126 55.043 52.3126H46.9927C45.683 52.3126 44.566 53.3526 44.5275 54.7008C44.4504 57.0119 45.5289 62.2889 46.1452 65.0623H54.7734V65.0238Z" fill="#436DEE"/>
<path d="M52.1156 119.489C52.2312 119.412 52.3082 119.258 52.3082 119.104C52.1541 113.21 51.769 105.699 51.6534 104.274C51.6534 104.12 51.6149 103.966 51.5764 103.773C52.8475 96.8015 53.0401 81.8563 53.1556 79.2371C53.3097 75.8089 51.2297 71.9186 48.5719 71.7645C45.8756 71.6489 42.9867 74.4223 42.1393 77.5808C41.5616 79.6608 43.7571 90.7541 46.1453 98.8045C46.646 100.499 46.723 102.271 46.4534 104.004C46.2608 105.199 46.2223 106.47 46.2993 107.394C46.4149 108.819 47.9941 114.559 49.4964 119.527C49.5349 119.681 49.6504 119.797 49.8045 119.797C50.6134 119.99 51.3838 119.951 52.1156 119.489Z" fill="#0B4870"/>
<path d="M45.2593 68.5289C45.683 67.3734 45.7985 66.1023 45.6059 64.9082C45.2208 62.0578 44.4889 56.7423 44.566 54.4697C44.6045 53.2371 45.606 52.3126 46.8 52.3126H47.9941C48.4563 53.3526 49.4193 54.1615 50.883 54.1615C52.3852 54.1615 53.3097 53.3526 53.7719 52.3126H54.8889C53.6948 54.8934 54.1185 58.3215 56.1985 60.3245C55.8134 61.7112 55.4667 63.0593 55.2356 64.1763C54.8889 65.6786 55.043 67.2578 55.6593 68.683C56.6993 71.1482 57.5082 75.0771 57.2385 76.6564C48.803 79.0445 42.9867 74.8075 42.9867 74.8075L45.2593 68.5289Z" fill="#436DEE"/>
<path d="M52.1926 52.8519L48.5719 52.4667L49.7274 48.4993L52.0771 48.7689L52.1926 52.8519Z" fill="#B97A59"/>
<path d="M52.0772 48.7689L49.7275 48.4608L49.3809 49.6934C49.9201 50.2712 50.5749 51.5808 51.4224 51.5808C51.692 51.5808 51.9231 51.5038 52.1542 51.3497L52.0772 48.7689Z" fill="#AA6B4F"/>
<path d="M52.1542 50.6949C51.3453 50.6949 50.4979 50.3097 49.3038 49.2697C48.6105 48.6919 48.1097 47.6519 48.1097 46.92V43.0297H54.0801C54.0801 43.0297 54.5423 45.1097 54.0801 47.1511C53.772 48.6919 52.7705 50.6949 52.1542 50.6949Z" fill="#B97A59"/>
<path d="M49.1111 46.1882C49.1111 46.9585 48.7645 47.5748 48.3023 47.5748C47.84 47.5748 47.3778 46.5734 47.3778 45.8415C47.3778 45.0712 47.8785 44.84 48.3023 44.84C48.7645 44.8015 49.1111 45.4178 49.1111 46.1882Z" fill="#B97A59"/>
<path d="M47.3779 43.4919C47.3779 42.2978 48.3794 41.2963 49.5734 41.2963H51.5764C52.1542 41.2963 52.732 41.1423 53.1942 40.8726C53.8875 40.4875 54.8119 40.603 55.2742 41.2578C55.8134 41.9512 56.0445 42.9141 54.6964 43.8C54.0416 44.2237 53.0786 43.7615 52.4238 43.9541C52.3853 43.9541 52.3468 43.9541 52.3082 43.9541H50.5364C49.9201 43.9541 49.4579 44.4549 49.4194 45.0712C49.4194 45.4563 49.0727 45.7645 48.6875 45.7645H48.6105L48.3408 44.8401L47.3394 46.1882V43.4919H47.3779Z" fill="#0B4870"/>
<path d="M74.726 53.4682C74.726 53.4682 73.763 55.3556 73.1082 55.24C72.4534 55.1245 71.9912 54.9704 72.1067 53.9689C72.2223 53.006 72.8386 51.6963 73.3393 51.003C73.8401 50.3097 75.2267 49.5008 75.4578 49.5008C76.1897 49.5393 75.1112 50.6949 74.6104 51.3112C74.1097 51.8889 73.609 52.6208 73.9556 52.7749C74.3023 52.9289 75.1882 51.7348 75.6504 51.7734C76.1127 51.8119 74.726 53.4682 74.726 53.4682Z" fill="#B97A59"/>
<path d="M53.6563 42.9527C53.4637 43.8386 53.7334 44.3393 50.8445 45.726C47.9171 47.1127 47.0311 46.5349 46.1067 47.9986C46.1067 47.9986 46.4919 45.5334 48.1097 44.686C49.7274 43.8386 52.5008 43.2993 53.3867 41.3349C53.3867 41.3349 53.7719 42.3749 53.6563 42.9527Z" fill="#0B4870"/>
<path d="M46.9926 55.9334C46.8386 56.0489 46.723 56.1259 46.6075 56.2415C46.4919 56.3185 46.3763 56.3956 46.2608 56.4726C46.0297 56.6267 45.7986 56.7808 45.5675 56.8963C45.1052 57.1659 44.6045 57.397 44.1038 57.6282C43.1023 58.0519 42.0237 58.3215 40.9452 58.5141C38.7497 58.8222 36.5156 58.5141 34.5126 57.7437C33.5112 57.3585 32.5867 56.8578 31.7008 56.28C30.8148 55.7022 30.006 55.0474 29.2356 54.3541C27.7334 52.9674 26.4237 51.3497 25.3067 49.6934C25.1911 49.5008 25.2297 49.2697 25.4223 49.1541C25.5763 49.0386 25.8074 49.0771 25.923 49.2312C27.2711 50.6949 28.6578 52.043 30.1986 53.1985C31.7393 54.3156 33.3956 55.2785 35.1674 55.7793C36.0534 56.0104 36.9393 56.203 37.8252 56.2415C38.7112 56.28 39.5971 56.203 40.483 56.0489C41.3689 55.8948 42.2163 55.5867 43.0252 55.24C43.4104 55.0474 43.8341 54.8548 44.2193 54.6237C44.4119 54.5082 44.6045 54.3926 44.7586 54.2771C44.8356 54.2 44.9512 54.1615 45.0282 54.0845L45.2593 53.9304L45.3364 53.8534C45.9141 53.3911 46.7615 53.5067 47.2238 54.0845C47.6475 54.6622 47.5704 55.4711 46.9926 55.9334Z" fill="#B97A59"/>
<path d="M53.0785 43.1452C53.0785 43.1452 53.1941 46.1497 55.8134 47.5749C55.8134 47.5749 54.6578 45.3023 54.7348 43.8386C54.8119 42.3363 52.9245 42.1052 53.0785 43.1452Z" fill="#0B4870"/>
<path d="M48.9956 128.271C48.803 128.117 48.726 127.809 48.8415 127.578C48.9571 127.385 49.2267 126.884 49.4193 126.499C49.4963 126.345 49.7275 126.307 49.843 126.461C51.1526 128.194 52.963 129.35 55.0045 129.196C55.7364 129.504 56.3527 130.39 56.2756 130.813C56.2756 130.89 55.3897 131.122 54.3497 130.775C49.8045 129.273 48.9956 128.271 48.9956 128.271Z" fill="#0B4870"/>
<path d="M26.0771 47.9215C26.0771 47.9215 27.3482 49.6163 26.963 50.1941C26.5779 50.7719 26.1927 51.08 25.3838 50.5408C24.5364 50.0015 23.6504 48.8845 23.2267 48.0756C22.803 47.2667 22.726 45.6874 22.803 45.4948C23.1882 44.84 23.766 46.3423 24.0741 47.0741C24.3823 47.806 24.806 48.5763 25.1142 48.3067C25.4223 48.0756 24.6904 46.7274 24.9601 46.3423C25.2297 45.9186 26.0771 47.9215 26.0771 47.9215Z" fill="#B97A59"/>
<g opacity="0.07">
<g opacity="0.07">
<path opacity="0.07" d="M179.959 54.6623C182.501 59.323 186.237 63.7141 186.545 68.9526C187.046 77.3882 178.841 83.7052 175.49 91.5245C171.369 101.116 174.836 112.402 171.176 122.147C168.519 129.196 162.047 134.858 154.421 136.707C148.72 138.093 142.711 137.477 136.818 137.516C120.101 137.67 103.422 143.447 86.8978 140.828C78.7318 139.519 71.0281 136.206 62.8622 135.166C53.04 133.895 41.6 135.436 34.5896 128.772C24.7674 119.45 32.0474 102.31 24.6904 91.1393C22.3022 87.5186 18.4889 84.7067 17.2178 80.6623C15.7156 75.886 18.1422 70.84 21.1467 66.7571C24.1511 62.7126 27.8874 58.9763 29.5052 54.2386C30.9689 49.963 30.083 45.3023 28.2726 41.1423C25.4992 34.7482 33.2415 20.1111 48.6489 21.2282C55.6978 21.7289 58.8948 13.563 66.637 11.2904C75.4963 8.70967 86.6281 10.7897 93.1378 12.9467C99.7629 15.1423 107.967 16.2978 111.781 10.6741C117.135 2.70077 133.159 1.46819 140.361 14.4104C142.981 19.1097 145.33 22.8074 150.916 22.4223C181.191 20.4578 176.145 47.7674 179.959 54.6623ZM97.4133 11.0208C97.4133 12.0993 97.4133 13.9482 102.19 13.64C103.653 13.563 104.847 12.7541 104.847 11.6756C104.847 10.5971 103.653 9.71114 102.19 9.71114C100.726 9.74966 97.4133 9.28744 97.4133 11.0208ZM50.3822 16.2978C50.2281 16.3749 50.1511 16.5289 50.0741 16.683C49.7659 17.1452 49.2267 17.4534 48.6874 17.6845C48.3792 17.8 48.0326 17.9156 47.8015 18.1467C47.4163 18.5319 47.4548 19.2252 47.8785 19.5334C48.2252 19.803 48.6874 19.8415 49.1496 19.803C50.8059 19.726 52.4237 19.1097 53.7333 18.1082C55.3896 16.76 51.3067 15.7971 50.3822 16.2978ZM45.837 18.763C45.2593 18.3778 44.5659 18.6089 43.9881 18.8786C43.8726 18.9556 43.757 19.0326 43.7185 19.1482C43.6415 19.4178 43.9881 19.6104 44.2578 19.6874C44.6815 19.803 45.1437 19.9571 45.5674 19.803C45.9911 19.6874 46.4148 19.1482 45.837 18.763ZM24.7289 53.3141C24.3052 52.043 23.3422 51.4267 21.84 52.1586C20.9541 52.5823 20.3378 53.3912 19.7985 54.2001C18.9511 55.5097 18.2192 56.9734 18.4118 58.4756C18.5274 59.5926 19.1822 60.6326 20.1067 61.2874C20.4918 61.5571 20.9541 61.7497 21.4163 61.7497C21.9556 61.7497 22.4178 61.4415 22.8415 61.1334C23.8044 60.4015 24.5363 59.4 25.2681 58.4756C25.6533 57.9749 26.0385 57.4356 26.1155 56.8578C26.3081 55.5097 25.1141 54.4697 24.7289 53.3141ZM179.573 92.2178C179.188 92.3719 178.803 92.5645 178.61 92.9112C178.456 93.1808 178.379 93.4889 178.379 93.7971C178.302 94.4519 178.264 95.0682 178.264 95.723C178.264 96.4164 178.341 97.1867 178.88 97.6875C179.612 98.3423 180.767 98.1112 181.692 97.8415C182.231 97.6875 182.809 97.5334 183.156 97.1097C183.425 96.8015 183.502 96.4163 183.579 96.0312C183.81 94.76 184.504 92.8341 183.733 92.1408C182.886 91.4475 180.921 91.6786 179.573 92.2178ZM126.071 141.676C125.879 141.868 125.686 142.061 125.57 142.292C125.262 142.947 125.57 143.794 126.264 144.064C126.61 144.218 126.996 144.218 127.381 144.179C130.578 144.141 134.006 144.025 136.548 142.176C136.856 141.945 137.164 141.637 137.126 141.29C137.049 140.828 136.51 140.636 136.047 140.559C132.85 139.981 128.613 139.287 126.071 141.676ZM65.597 136.745C62.8237 136.36 58.4326 135.859 58.4326 138.093C58.4326 138.941 62.3615 139.75 62.9778 139.904C64.9807 140.405 66.8681 141.098 68.7941 141.83C72.4148 143.178 75.3422 141.367 72.4533 139.326C70.1037 137.67 67.8311 137.053 65.597 136.745Z" fill="#2A94F4"/>
</g>
</g>
<path d="M77.1525 117.024C74.4177 115.868 71.9911 113.673 69.9496 111.593C64.48 105.93 61.0903 98.5734 59.28 90.9467C57.6622 84.0519 57.3155 76.9645 57.6237 69.9156C57.6622 69.3378 58.5866 69.2993 58.5481 69.9156C57.7778 85.7467 60.9363 105.122 75.0725 114.751C75.8814 115.29 76.6903 115.83 77.5762 116.215C78.154 116.446 77.6918 117.255 77.1525 117.024Z" fill="#55ACEE"/>
<path d="M59.1644 88.289C59.1644 88.289 58.2785 83.166 51.4992 82.3571C51.4607 82.3571 53.9644 88.4045 59.1644 88.289Z" fill="#55ACEE"/>
<path d="M61.3985 95.8386C61.3985 95.8386 59.3185 91.0623 52.5392 91.8712C52.5392 91.8712 56.3525 97.1867 61.3985 95.8386Z" fill="#55ACEE"/>
<path d="M64.2874 102.541C64.2874 102.541 61.2059 98.3423 54.7733 100.653C54.7348 100.653 59.6651 104.967 64.2874 102.541Z" fill="#55ACEE"/>
<path d="M58.1243 80.3156C58.1243 80.3156 57.2384 75.2697 50.5747 74.4993C50.5747 74.4993 53.0014 80.4697 58.1243 80.3156Z" fill="#55ACEE"/>
<path d="M58.0473 71.5719C58.0473 71.5719 61.8606 68.1437 58.9717 62.0578C58.9717 62.0963 55.1969 67.2963 58.0473 71.5719Z" fill="#55ACEE"/>
<path d="M58.0088 76.7719C58.0088 76.7719 63.0548 75.8475 63.7866 69.1837C63.7866 69.1452 57.8162 71.6489 58.0088 76.7719Z" fill="#55ACEE"/>
<path d="M58.5096 84.4371C58.5096 84.4371 63.5555 83.5127 64.2873 76.849C64.2873 76.849 58.317 79.3141 58.5096 84.4371Z" fill="#55ACEE"/>
<path d="M59.8191 91.64C59.8191 91.64 64.788 90.369 65.0191 83.6667C65.0191 83.6282 59.2798 86.5171 59.8191 91.64Z" fill="#55ACEE"/>
<path d="M62.0918 98.8045C62.0918 98.8045 67.0607 97.5334 67.2918 90.8311C67.2918 90.8311 61.5525 93.72 62.0918 98.8045Z" fill="#55ACEE"/>
<g opacity="0.51">
<path opacity="0.51" d="M135.701 108.935C134.815 107.24 136.856 105.43 138.744 105.083C140.631 104.736 142.75 105.006 144.213 103.812C146.216 102.233 146.101 98.8045 148.296 97.5334C150.068 96.5319 152.418 97.4949 154.267 96.686C156.578 95.6845 157.233 92.449 159.544 91.3704C161.354 90.4845 163.742 91.486 164.667 93.2578C165.591 95.0297 165.167 97.3408 163.896 98.9201C162.895 100.114 161.393 101 160.776 102.425C159.813 104.698 161.354 107.433 160.43 109.744C158.773 113.981 150.915 112.71 149.529 117.062C149.221 118.025 149.336 119.065 149.259 120.105C149.028 123.11 146.91 125.729 144.29 127.231C141.671 128.733 138.59 129.234 135.585 129.465C134.353 129.542 133.043 129.581 131.964 129.003C130.924 128.464 130.231 127.501 129.653 126.461C126.033 119.951 124.53 111.4 135.701 108.935Z" fill="#55ACEE"/>
</g>
<g opacity="0.51">
<path opacity="0.51" d="M77.037 103.042C78.2696 101.039 75.9585 98.6504 73.6859 98.0726C71.4133 97.4949 68.8326 97.6104 67.0992 96.0312C64.8266 93.9126 65.2503 89.7141 62.6696 87.9808C60.5896 86.5941 57.6622 87.5571 55.4281 86.4015C52.6548 84.9763 52.1926 80.9319 49.4963 79.3911C47.3392 78.1585 44.3348 79.1215 43.0252 81.24C41.7155 83.3585 42.0237 86.2089 43.4489 88.2504C44.5659 89.8297 46.2992 91.0238 46.954 92.8341C47.9555 95.6845 45.7985 98.92 46.6844 101.809C48.3407 107.163 58.0859 106.316 59.3185 111.785C59.5881 113.018 59.357 114.25 59.357 115.522C59.357 119.219 61.7066 122.647 64.7881 124.727C67.8696 126.807 71.5674 127.732 75.2266 128.271C76.7289 128.502 78.3081 128.656 79.6948 128.04C81.0044 127.501 81.9674 126.345 82.7763 125.151C87.8222 117.409 90.4415 107.086 77.037 103.042Z" fill="#55ACEE"/>
</g>
<path d="M157.618 10.443L154.921 11.3675L153.766 8.01635C151.609 1.81487 144.791 -1.49773 138.59 0.659307C132.388 2.81634 129.075 9.63412 131.233 15.8356L132.388 19.1867L129.692 20.1112C127.573 20.843 126.456 23.1541 127.188 25.2726L134.776 47.1897C135.508 49.3082 137.858 50.4637 139.938 49.7319L167.825 40.0638C169.944 39.3319 171.099 36.9823 170.367 34.8638L162.779 12.9467C162.086 10.8282 159.775 9.67264 157.618 10.443ZM136.355 14.0252C135.161 10.6356 136.972 6.89931 140.361 5.70524C143.751 4.51116 147.487 6.32153 148.681 9.74968L149.837 13.1008L137.511 17.3763L136.355 14.0252ZM152.533 34.0163L154.459 39.6015C154.536 39.8326 154.382 40.0638 154.151 40.1793L151.455 41.1037C151.262 41.1808 150.993 41.0652 150.915 40.8341L148.99 35.2489C146.91 35.1719 144.984 33.8623 144.252 31.7438C143.327 29.0475 144.753 26.0815 147.449 25.1186C150.145 24.1941 153.111 25.6193 154.074 28.3156C154.806 30.4341 154.113 32.6682 152.533 34.0163Z" fill="#D2D6E3"/>
<path d="M125.917 130.428H82.2756C77.7689 130.428 74.1482 126.769 74.1482 122.301V21.1126C74.1482 16.606 77.8075 12.9852 82.2756 12.9852H125.879C130.385 12.9852 134.006 16.6445 134.006 21.1126V122.301C134.044 126.769 130.385 130.428 125.917 130.428Z" fill="#2A94F4"/>
<path d="M125.57 126.268H82.6222C79.4637 126.268 76.9215 123.726 76.9215 120.567V22.1141C76.9215 18.9556 79.4637 16.4134 82.6222 16.4134H125.57C128.729 16.4134 131.271 18.9556 131.271 22.1141V120.567C131.271 123.726 128.729 126.268 125.57 126.268Z" fill="#F7F7F7"/>
<path d="M120.37 16.4134H116.827C115.748 16.4134 114.862 17.2993 114.862 18.3778V19.7645C114.862 20.843 113.976 21.7289 112.898 21.7289H97.1437C96.0652 21.7289 95.1793 20.843 95.1793 19.7645V18.3778C95.1793 17.2993 94.2933 16.4134 93.2148 16.4134H83.1615V15.4119H120.37V16.4134Z" fill="#2A94F4"/>
<path opacity="0.17" d="M103.345 62.7126C107.685 62.7126 111.203 59.1946 111.203 54.8549C111.203 50.5151 107.685 46.9971 103.345 46.9971C99.0055 46.9971 95.4874 50.5151 95.4874 54.8549C95.4874 59.1946 99.0055 62.7126 103.345 62.7126Z" fill="#2A94F4"/>
<path d="M106.388 53.0445C106.388 54.7393 105.04 56.0874 103.345 56.0874C101.65 56.0874 100.302 54.7393 100.302 53.0445C100.302 51.3497 101.65 50.0015 103.345 50.0015C105.04 50.0015 106.388 51.3497 106.388 53.0445ZM107.929 65.563V61.2104C107.929 58.7837 105.964 56.7808 103.499 56.7808H103.153C100.726 56.7808 98.7229 58.7452 98.7229 61.2104V65.563C98.7229 66.2564 99.2622 66.7956 99.9555 66.7956H106.696C107.39 66.7956 107.929 66.2564 107.929 65.563Z" fill="#2A94F4"/>
<path opacity="0.17" d="M122.181 71.6874H84.5097C82.7763 71.6874 81.3896 70.3007 81.3896 68.5674C81.3896 66.8341 82.7763 65.4474 84.5097 65.4474H122.181C123.914 65.4474 125.301 66.8341 125.301 68.5674C125.301 70.2622 123.914 71.6874 122.181 71.6874Z" fill="#2A94F4"/>
<path d="M120.871 69.3763H85.8194C85.3572 69.3763 85.0105 69.0297 85.0105 68.5675C85.0105 68.1052 85.3572 67.7586 85.8194 67.7586H120.871C121.333 67.7586 121.68 68.1052 121.68 68.5675C121.68 68.9912 121.333 69.3763 120.871 69.3763Z" fill="#2A94F4"/>
<path opacity="0.17" d="M122.219 82.8578H84.5482C82.8149 82.8578 81.4282 81.4712 81.4282 79.7378C81.4282 78.0045 82.8149 76.6178 84.5482 76.6178H122.219C123.953 76.6178 125.339 78.0045 125.339 79.7378C125.339 81.4712 123.914 82.8578 122.219 82.8578Z" fill="#2A94F4"/>
<path d="M85.5112 80.6237C85.0489 80.6237 84.7023 80.2771 84.7023 79.8149C84.7023 79.3526 85.0489 79.006 85.5112 79.006C85.9734 79.006 86.3201 79.3526 86.3201 79.8149C86.3201 80.2771 85.9349 80.6237 85.5112 80.6237ZM88.7467 79.8149C88.7467 79.3526 88.4 79.006 87.9378 79.006C87.4756 79.006 87.1289 79.3526 87.1289 79.8149C87.1289 80.2771 87.4756 80.6237 87.9378 80.6237C88.3615 80.6237 88.7467 80.2771 88.7467 79.8149ZM91.1349 79.8149C91.1349 79.3526 90.7882 79.006 90.326 79.006C89.8638 79.006 89.5171 79.3526 89.5171 79.8149C89.5171 80.2771 89.8638 80.6237 90.326 80.6237C90.7882 80.6237 91.1349 80.2771 91.1349 79.8149ZM93.5615 79.8149C93.5615 79.3526 93.2149 79.006 92.7526 79.006C92.2904 79.006 91.9438 79.3526 91.9438 79.8149C91.9438 80.2771 92.2904 80.6237 92.7526 80.6237C93.2149 80.6237 93.5615 80.2771 93.5615 79.8149ZM95.9882 79.8149C95.9882 79.3526 95.6415 79.006 95.1793 79.006C94.7171 79.006 94.3704 79.3526 94.3704 79.8149C94.3704 80.2771 94.7171 80.6237 95.1793 80.6237C95.6415 80.6237 95.9882 80.2771 95.9882 79.8149ZM98.4149 79.8149C98.4149 79.3526 98.0682 79.006 97.606 79.006C97.1438 79.006 96.7971 79.3526 96.7971 79.8149C96.7971 80.2771 97.1438 80.6237 97.606 80.6237C98.0297 80.6237 98.4149 80.2771 98.4149 79.8149ZM100.842 79.8149C100.842 79.3526 100.495 79.006 100.033 79.006C99.5704 79.006 99.2238 79.3526 99.2238 79.8149C99.2238 80.2771 99.5704 80.6237 100.033 80.6237C100.456 80.6237 100.842 80.2771 100.842 79.8149Z" fill="#2A94F4"/>
<path d="M196.036 139H5.96381C2.65486 139 0 136.997 0 134.5C0 132.003 2.65486 130 5.96381 130H196.036C199.345 130 202 132.003 202 134.5C202 136.997 199.345 139 196.036 139Z" fill="#D3D3D3"/>
<path d="M47.3008 27.6223L44.7971 24.8874L14.1364 52.9289C12.0178 51.5808 9.32155 51.2341 6.77932 52.1971C2.54229 53.8149 0.423762 58.5527 2.08006 62.7897C3.73636 67.0267 8.43562 69.1453 12.6727 67.489C16.9097 65.8712 19.0282 61.1334 17.3719 56.8964C17.2564 56.5882 17.1023 56.2801 16.9482 55.9719L40.1749 34.286L42.9482 37.0208L45.7216 34.2089L43.526 32.0134L44.3734 31.0119L46.646 33.0534L48.5719 30.8578L46.1838 28.6623L47.3008 27.6223ZM11.6327 64.7927C8.89784 65.8327 5.77783 64.4845 4.73783 61.7112C3.69783 58.9764 5.04598 55.8564 7.81932 54.8164C10.5541 53.7764 13.6741 55.1245 14.7141 57.8978C15.7541 60.6712 14.3675 63.7527 11.6327 64.7927Z" fill="#D2D6E3"/>
</svg>
