<svg width="18" height="17" viewBox="0 0 18 17" fill="none" xmlns="http://www.w3.org/2000/svg">
<path d="M6.29749 1.62697C6.55638 1.15637 6.93688 0.763899 7.39924 0.49055C7.8616 0.217202 8.38887 0.072998 8.92599 0.072998C9.46311 0.072998 9.99038 0.217202 10.4527 0.49055C10.9151 0.763899 11.2956 1.15637 11.5545 1.62697L17.4805 12.402C17.7318 12.8587 17.8597 13.3731 17.8516 13.8943C17.8436 14.4156 17.6998 14.9257 17.4345 15.3745C17.1693 15.8233 16.7916 16.1952 16.3389 16.4536C15.8861 16.712 15.3738 16.8479 14.8525 16.848H3.00049C2.47909 16.8481 1.96667 16.7122 1.51376 16.4539C1.06084 16.1956 0.683069 15.8237 0.417683 15.3749C0.152297 14.9261 0.00846316 14.4159 0.000362205 13.8946C-0.00773875 13.3733 0.120173 12.8588 0.371486 12.402L6.29749 1.62697Z" fill="#D8D8D8"/>
<path d="M6.29749 1.62697C6.55638 1.15637 6.93688 0.763899 7.39924 0.49055C7.8616 0.217202 8.38887 0.072998 8.92599 0.072998C9.46311 0.072998 9.99038 0.217202 10.4527 0.49055C10.9151 0.763899 11.2956 1.15637 11.5545 1.62697L17.4805 12.402C17.7318 12.8587 17.8597 13.3731 17.8516 13.8943C17.8436 14.4156 17.6998 14.9257 17.4345 15.3745C17.1693 15.8233 16.7916 16.1952 16.3389 16.4536C15.8861 16.712 15.3738 16.8479 14.8525 16.848H3.00049C2.47909 16.8481 1.96667 16.7122 1.51376 16.4539C1.06084 16.1956 0.683069 15.8237 0.417683 15.3749C0.152297 14.9261 0.00846316 14.4159 0.000362205 13.8946C-0.00773875 13.3733 0.120173 12.8588 0.371486 12.402L6.29749 1.62697Z" fill="#D8D8D8"/>
<path d="M6.29749 1.62697C6.55638 1.15637 6.93688 0.763899 7.39924 0.49055C7.8616 0.217202 8.38887 0.072998 8.92599 0.072998C9.46311 0.072998 9.99038 0.217202 10.4527 0.49055C10.9151 0.763899 11.2956 1.15637 11.5545 1.62697L17.4805 12.402C17.7318 12.8587 17.8597 13.3731 17.8516 13.8943C17.8436 14.4156 17.6998 14.9257 17.4345 15.3745C17.1693 15.8233 16.7916 16.1952 16.3389 16.4536C15.8861 16.712 15.3738 16.8479 14.8525 16.848H3.00049C2.47909 16.8481 1.96667 16.7122 1.51376 16.4539C1.06084 16.1956 0.683069 15.8237 0.417683 15.3749C0.152297 14.9261 0.00846316 14.4159 0.000362205 13.8946C-0.00773875 13.3733 0.120173 12.8588 0.371486 12.402L6.29749 1.62697Z" fill="#373737"/>
</svg>
