<svg width="18" height="17" viewBox="0 0 18 17" fill="none" xmlns="http://www.w3.org/2000/svg">
<path d="M11.4984 15.3153C11.2356 15.7838 10.8519 16.1731 10.3873 16.4427C9.92275 16.7122 9.39431 16.8521 8.85721 16.8477C8.32011 16.8433 7.79404 16.6947 7.33394 16.4176C6.87384 16.1405 6.49657 15.7449 6.24155 15.2722L0.404133 4.44895C0.156616 3.99014 0.0329269 3.47476 0.045259 2.95359C0.0575912 2.43243 0.205517 1.92347 0.474457 1.47688C0.743398 1.0303 1.12407 0.661506 1.57895 0.40685C2.03383 0.152194 2.54722 0.0204676 3.06851 0.0246543L14.9201 0.121876C15.4415 0.126069 15.9528 0.266075 16.4036 0.528088C16.8543 0.790101 17.2291 1.16508 17.4907 1.61604C17.7524 2.06701 17.8921 2.57839 17.8959 3.09977C17.8997 3.62116 17.7676 4.13453 17.5126 4.58929L11.4984 15.3153Z" fill="#D8D8D8"/>
<path d="M11.4984 15.3153C11.2356 15.7838 10.8519 16.1731 10.3873 16.4427C9.92275 16.7122 9.39431 16.8521 8.85721 16.8477C8.32011 16.8433 7.79404 16.6947 7.33394 16.4176C6.87384 16.1405 6.49657 15.7449 6.24155 15.2722L0.404133 4.44895C0.156616 3.99014 0.0329269 3.47476 0.045259 2.95359C0.0575912 2.43243 0.205517 1.92347 0.474457 1.47688C0.743398 1.0303 1.12407 0.661506 1.57895 0.40685C2.03383 0.152194 2.54722 0.0204676 3.06851 0.0246543L14.9201 0.121876C15.4415 0.126069 15.9528 0.266075 16.4036 0.528088C16.8543 0.790101 17.2291 1.16508 17.4907 1.61604C17.7524 2.06701 17.8921 2.57839 17.8959 3.09977C17.8997 3.62116 17.7676 4.13453 17.5126 4.58929L11.4984 15.3153Z" fill="#D8D8D8"/>
<path d="M11.4984 15.3153C11.2356 15.7838 10.8519 16.1731 10.3873 16.4427C9.92275 16.7122 9.39431 16.8521 8.85721 16.8477C8.32011 16.8433 7.79404 16.6947 7.33394 16.4176C6.87384 16.1405 6.49657 15.7449 6.24155 15.2722L0.404133 4.44895C0.156616 3.99014 0.0329269 3.47476 0.045259 2.95359C0.0575912 2.43243 0.205517 1.92347 0.474457 1.47688C0.743398 1.0303 1.12407 0.661506 1.57895 0.40685C2.03383 0.152194 2.54722 0.0204676 3.06851 0.0246543L14.9201 0.121876C15.4415 0.126069 15.9528 0.266075 16.4036 0.528088C16.8543 0.790101 17.2291 1.16508 17.4907 1.61604C17.7524 2.06701 17.8921 2.57839 17.8959 3.09977C17.8997 3.62116 17.7676 4.13453 17.5126 4.58929L11.4984 15.3153Z" fill="#373737"/>
</svg>
