<svg width="270" height="195" viewBox="0 0 270 195" fill="none" xmlns="http://www.w3.org/2000/svg">
<path d="M66.8744 88.8121C91.0354 88.8121 110.622 69.2257 110.622 45.0646C110.622 20.9036 91.0354 1.31723 66.8744 1.31723C42.7133 1.31723 23.127 20.9036 23.127 45.0646C23.127 69.2257 42.7133 88.8121 66.8744 88.8121Z" stroke="#A8A8A8" stroke-miterlimit="10" stroke-dasharray="12.07 12.07"/>
<path d="M174.601 8.73202C181.036 8.81147 187.497 10.1885 193.323 12.9426C197.455 14.9022 201.241 17.4444 204.234 20.6752C210.245 27.1367 212.628 36.617 208.524 43.7141C205.081 49.6459 197.534 53.9094 197.455 60.7417C197.349 68.7126 207.438 74.0089 216.256 75.6507C225.048 77.2926 234.926 77.6104 241.546 83.2774C247.24 88.15 248.749 95.962 246.869 102.529C244.989 109.07 240.196 114.526 234.873 119.186C221.526 130.865 204.393 138.518 186.835 144.582C149.735 157.373 109.483 163.596 68.9664 162.828C58.8505 162.642 47.5429 161.557 40.4458 154.724C33.2958 147.839 33.0575 136.955 37.7447 129.064C42.4319 121.172 51.0384 115.876 60.0421 112.036C69.0458 108.17 78.7116 105.495 87.4505 101.232C94.0708 98.0276 100.85 91.9104 98.0431 85.343C96.0569 80.6822 90.1781 78.4313 85.0142 76.5246C77.7318 73.85 70.4493 70.7252 64.491 66.0115C58.5327 61.2978 53.9514 54.7568 53.5012 47.8452C53.0775 41.3837 56.2818 35.2135 61.0219 30.5792C65.7621 25.945 71.9323 22.6878 78.2614 19.8807C103.26 8.83795 157.203 8.52017 174.601 8.73202Z" fill="#F7F7F7"/>
<path d="M258.018 194.049H3.15989C1.51804 194.049 0.16748 192.699 0.16748 191.057V176.227C0.16748 174.586 1.51804 173.235 3.15989 173.235H258.044C259.686 173.235 261.037 174.586 261.037 176.227V191.057C261.037 192.699 259.686 194.049 258.018 194.049Z" fill="#F2F2F2"/>
<path d="M202.38 153.903H18.0691V179.22H202.38V153.903Z" fill="#FFEBC2"/>
<path d="M201.612 153.903V179.246H8.24438V181.153C8.24438 183.51 10.3099 185.39 12.8522 185.39H200.791C206.776 185.39 211.622 180.915 211.622 175.38V158.432C211.622 152.897 206.776 148.422 200.791 148.422H12.8522C10.3099 148.422 8.24438 150.328 8.24438 152.659V153.877H201.612V153.903Z" fill="#FCAD00"/>
<path d="M202.38 165.211H18.0691V179.246H202.38V165.211Z" fill="#FFEBC2"/>
<path d="M28.7869 145.092L178.566 145.092L178.566 123.059L28.7869 123.059L28.7869 145.092Z" fill="#CCE9FF"/>
<path d="M178.573 123.053V145.085H23.127V146.753C23.127 148.793 24.7953 150.461 26.8344 150.461H177.911C182.704 150.461 186.624 146.568 186.624 141.748V126.998C186.624 122.205 182.731 118.286 177.911 118.286H26.8344C24.7953 118.286 23.127 119.954 23.127 121.993V123.053H178.573Z" fill="#2A94F4"/>
<path d="M178.573 132.877H28.7939V145.085H178.573V132.877Z" fill="#CCE9FF"/>
<path d="M30.3035 186.026L35.9705 182.768L41.6375 186.026V165.185H30.3035V186.026Z" fill="#2A94F4"/>
<path d="M30.3035 186.026L35.9705 182.768V165.185H30.3035V186.026Z" fill="#CCE9FF"/>
<path d="M237.468 184.781C243.983 184.781 246.737 179.564 247.822 174.029C249.041 167.806 248.14 161.159 248.14 161.159H226.77C226.77 161.159 226.743 161.424 226.69 161.874C226.293 165.794 224.995 184.781 237.468 184.781Z" fill="#B6E7FF"/>
<path d="M226.77 161.159C226.77 161.636 231.563 162.007 237.468 162.007C243.374 162.007 248.167 161.636 248.167 161.159C248.167 160.683 243.374 160.312 237.468 160.312C231.563 160.312 226.77 160.683 226.77 161.159Z" fill="#85DDFF"/>
<path d="M208.524 101.894C208.524 101.894 219.805 119.054 226.558 129.514C233.311 139.974 235.085 142.146 235.906 145.535C236.7 148.925 237.442 161.398 237.442 161.398H237.945C237.945 161.398 237.76 150.805 237.15 147.23C236.568 143.788 237.203 142.543 237.68 138.915C238.157 135.287 238.819 129.488 235.138 125.462C231.483 121.437 232.437 117.491 231.139 114.843C229.842 112.195 219.858 108.964 218.587 106.237C217.289 103.509 211.649 101.814 208.524 101.894Z" fill="#2A94F4"/>
<path d="M208.524 101.895C208.524 101.895 212.072 105.92 214.482 107.297C216.892 108.674 218.031 107.456 219.884 110.766C221.738 114.076 221.818 115.506 223.512 117.201C225.207 118.896 227.22 118.975 227.379 122.683C227.538 126.39 226.584 129.515 226.584 129.515C226.584 129.515 209.239 102.769 208.524 101.895Z" fill="#41AAF7"/>
<path d="M236.541 161.398H236.038C236.038 161.398 235.879 157.955 234.529 156.313C233.655 155.228 229.921 154.009 226.24 152.553C224.201 151.759 222.188 150.858 220.679 149.905C216.389 147.177 212.311 138.412 211.94 136.849C211.808 136.293 211.755 135.976 211.755 135.737C211.755 135.314 211.966 135.261 212.337 134.837C212.523 134.625 213.026 134.704 213.661 134.89C215.515 135.446 217.077 136.717 218.031 138.385C218.931 139.921 220.361 141.881 222.109 142.331C225.128 143.152 224.889 143.629 226.002 146.727C227.114 149.799 229.921 150.302 233.469 153.93C236.992 157.558 236.541 161.398 236.541 161.398Z" fill="#2A94F4"/>
<path d="M226.213 152.553C224.174 151.759 222.162 150.858 220.652 149.905C216.362 147.177 212.284 138.412 211.913 136.849C211.781 136.293 211.728 135.976 211.728 135.737C211.728 135.843 211.94 137.22 214.164 138.147C216.495 139.1 216.945 139.1 217.236 140.557C217.527 142.013 217.792 143.576 219.01 143.894C220.229 144.185 220.97 142.834 221.923 145.059C222.877 147.283 223.327 148.025 224.227 148.342C225.101 148.634 225.79 148.184 225.975 149.905C226.107 150.938 226.187 151.944 226.213 152.553Z" fill="#41AAF7"/>
<path d="M240.249 161.398H240.858C240.858 161.398 242.023 140.16 243.638 138.2C244.671 136.929 248.114 134.651 252.483 132.904C254.893 131.95 257.276 130.918 259.077 129.752C264.161 126.522 269.007 116.141 269.405 114.287C269.564 113.652 269.617 113.254 269.617 112.99C269.617 112.486 269.352 112.407 268.928 111.904C268.716 111.666 268.107 111.745 267.339 111.983C265.141 112.645 263.288 114.155 262.149 116.141C261.09 117.968 259.395 120.272 257.329 120.828C253.754 121.781 254.045 122.391 252.721 126.019C251.397 129.673 248.061 130.256 243.877 134.572C239.693 138.862 240.249 161.398 240.249 161.398Z" fill="#2A94F4"/>
<path d="M252.457 132.904C254.867 131.95 257.25 130.918 259.051 129.752C264.135 126.522 268.981 116.141 269.378 114.287C269.537 113.652 269.59 113.254 269.59 112.99C269.564 113.122 269.352 114.764 266.704 115.85C263.95 116.988 263.42 116.988 263.049 118.71C262.679 120.431 262.387 122.285 260.957 122.655C259.527 123.026 258.627 121.411 257.488 124.032C256.35 126.654 255.82 127.554 254.761 127.925C253.728 128.296 252.933 127.74 252.695 129.779C252.589 130.997 252.51 132.189 252.457 132.904Z" fill="#41AAF7"/>
<path d="M237.468 184.781C243.983 184.781 246.737 179.564 247.822 174.029C241.414 171.593 233.364 167.727 226.69 161.848C226.293 165.794 224.995 184.781 237.468 184.781Z" fill="#CCE9FF"/>
<path d="M167.054 57.6698C167.61 55.313 170.417 50.917 172.88 50.7846C172.721 51.6056 172.456 52.6383 172.88 53.4328C173.304 54.2007 167.054 57.6698 167.054 57.6698Z" fill="#E2E2E2"/>
<path d="M165.147 163.516C165.147 163.516 165.385 178.558 164.194 178.929C162.631 178.266 158.315 166.853 159.559 165.423C160.804 163.993 162.234 161.371 162.234 161.371L165.147 163.516Z" fill="#2A94F4"/>
<path d="M150.582 106.846C150.582 106.846 179.315 119.186 179.95 121.437C180.612 123.715 166.18 164.046 166.18 164.046L161.969 161.927C161.969 161.927 164.459 131.368 170.311 126.654C163.797 123.847 131.992 120.616 133.237 110.183C134.482 99.7225 150.582 106.846 150.582 106.846Z" fill="#0D4870"/>
<path d="M170.682 165.238C172.456 168.415 178.123 177.737 177.858 179.193C176.19 179.696 167.477 173.526 167.371 170.984C167.266 168.442 168.192 165.979 168.192 165.979L170.682 165.238Z" fill="#2A94F4"/>
<path d="M132.495 110.553C130.933 119.107 127.888 121.437 154.819 132.215C155.269 135.075 161.863 161.265 167.795 167.356C169.013 167.197 171.105 165.979 171.105 165.979C171.105 165.979 165.279 128.296 164.088 126.681C163.002 125.198 146.583 110.553 146.583 110.553H132.495Z" fill="#0E538C"/>
<path d="M128.576 115.108L128.205 117.386C128.205 117.386 116.951 121.464 116.421 121.914C115.892 122.364 127.49 122.391 127.808 122.391C127.146 123.264 126.087 125.992 126.405 126.654C127.676 125.515 129.212 122.973 130.165 122.179C131.118 121.384 131.78 115.85 131.78 115.85L128.576 115.108Z" fill="#FFD3AE"/>
<path d="M146.425 72.6318C140.996 74.2737 135.964 74.6709 131.807 97.8422L128.47 115.585L131.913 116.512L134.005 111.189C134.005 111.189 150.609 115.77 151.959 108.064C153.31 100.331 153.522 98.4513 154.051 97.8422C154.581 97.2066 155.508 95.2205 155.508 95.2205C155.508 95.2205 167.213 122.523 168.457 83.1185C167.213 83.8335 165.094 83.0126 165.094 83.0126C165.094 83.0126 163.532 96.6505 162.287 94.9822C161.042 93.3139 160.301 72.8966 150.185 73.2674L146.425 72.6318Z" fill="#2A94F4"/>
<path d="M148.57 42.2841C148.57 46.0709 145.498 49.1428 141.711 49.1428C137.924 49.1428 134.852 46.0709 134.852 42.2841C134.852 38.4972 140.89 36.9083 144.677 36.9083C148.464 36.9083 148.57 38.4972 148.57 42.2841Z" fill="#0E538C"/>
<path d="M146.531 64.8198C146.61 68.7126 144.306 74.0618 144.306 74.0618L149.761 80.4439L150.609 75.2535V64.7933H146.531V64.8198Z" fill="#FFD3AE"/>
<path d="M138.348 52.7972C138.348 47.1831 142.903 42.6283 148.517 42.6283C154.131 42.6283 158.845 47.342 158.845 52.9561C158.845 58.5702 154.475 63.7341 148.888 63.7341C143.247 63.7341 138.348 58.4113 138.348 52.7972Z" fill="#0E538C"/>
<path d="M158.659 57.6698C158.659 63.3633 155.296 68.792 150.979 68.792C146.663 68.792 141.711 63.3633 141.711 57.6698C141.711 51.9763 146.531 47.342 150.847 47.342C154.581 47.342 157.706 50.8111 158.474 55.4454C158.606 56.1604 158.659 56.9018 158.659 57.6698Z" fill="#FFE3CA"/>
<path d="M158.474 55.3394C155.64 54.2007 153.575 52.2941 152.542 48.2159C152.039 52.2941 147.934 56.2663 141.022 57.6433C141.022 51.7115 146.027 46.9183 150.529 46.9183C154.422 46.9448 157.679 50.5463 158.474 55.3394Z" fill="#0E538C"/>
<path d="M175.713 52.5854C175.316 51.8174 174.654 51.1289 174.654 51.1289C174.654 51.1289 167.663 57.2726 167.054 57.6698C166.445 58.0671 151.774 52.7178 151.774 52.7178L151.297 56.4252L151.801 70.4074L167.504 75.0947L173.754 72.6584L175.713 52.5854Z" fill="#D6D6D6"/>
<path d="M176.137 52.2941C176.137 52.2941 168.669 57.1932 168.457 58.0406C168.245 58.888 166.683 59.7089 164.485 58.4907C162.261 57.2726 150.185 54.4656 150.185 54.4656L151.191 76.1274L164.803 78.3519L174.151 74.565L176.137 52.2941Z" fill="#436DEE"/>
<path d="M142.177 63.0191C143.309 62.6236 143.75 60.9374 143.161 59.2528C142.573 57.5683 141.178 56.5233 140.046 56.9188C138.913 57.3143 138.473 59.0006 139.061 60.6851C139.65 62.3697 141.044 63.4146 142.177 63.0191Z" fill="#FFE3CA"/>
<path d="M168.431 83.86L168.722 79.7554L170.496 75.4389L164.564 70.3809C164.564 70.3809 164.75 71.652 165.465 72.6318C166.153 73.6117 166.498 74.1413 166.498 74.1413C166.498 74.1413 162.923 72.0228 162.34 71.705C162.049 72.1022 161.837 74.1413 162.975 75.0681C164.114 75.995 165.783 78.2724 165.783 78.2724L165.015 83.5687C165.041 83.5952 167.689 85.0781 168.431 83.86Z" fill="#FFD3AE"/>
</svg>
