<svg width="224" height="217" viewBox="0 0 224 217" fill="none" xmlns="http://www.w3.org/2000/svg">
<path opacity="0.39" d="M115.222 216.524C174.964 216.524 223.394 168.244 223.394 108.686C223.394 49.1287 174.964 0.84787 115.222 0.84787C55.4797 0.84787 7.04932 49.1287 7.04932 108.686C7.04932 168.244 55.4797 216.524 115.222 216.524Z" fill="#CDEAFB"/>
<path d="M92.9156 55.3917C92.9156 55.3917 93.138 53.9728 92.8711 53.3077C92.6487 52.7756 92.2039 52.0218 92.026 51.5341C91.8036 51.0463 91.1365 48.8293 91.1365 48.2529C91.1365 48.0312 91.7147 46.568 91.6702 46.1246C91.6257 45.6368 91.3589 44.7057 91.8036 44.6613C92.2484 44.617 92.7377 45.4151 92.7377 45.4151C92.7377 45.4151 92.7822 45.0161 93.1825 44.8387C93.9386 44.5727 94.2055 44.883 94.2055 44.883C94.2055 44.883 94.4723 44.3953 94.8281 44.3066C95.5843 44.2179 95.9401 44.5727 95.9401 44.5727C95.9401 44.5727 96.2514 44.3066 96.7852 44.3066C97.4523 44.351 97.6747 44.883 97.6747 44.883C97.6747 44.883 98.5198 44.75 98.7422 45.1047C98.9646 45.5038 98.9646 45.8585 99.0535 46.2133C99.1425 46.568 99.098 49.5831 97.9861 51.7114C97.0965 53.4407 97.0076 56.1898 97.0076 56.1898L92.9156 55.3917Z" fill="#FACBB6"/>
<path d="M36.8292 55.3917C36.8292 55.3917 36.6068 53.9728 36.8737 53.3077C37.0961 52.7756 37.5409 52.0218 37.7188 51.5341C37.9412 51.0463 38.6083 48.8293 38.6083 48.2529C38.6083 48.0312 38.0301 46.568 38.0746 46.1246C38.1191 45.6368 38.3859 44.7057 37.9412 44.6613C37.4964 44.617 37.0071 45.4151 37.0071 45.4151C37.0071 45.4151 37.0516 44.9717 36.6513 44.8387C35.8952 44.5726 35.5394 44.8387 35.5394 44.8387C35.5394 44.8387 35.2725 44.3953 34.9167 44.3509C34.1605 44.2623 33.8047 44.5283 33.8047 44.5283C33.8047 44.5283 33.4489 44.2623 32.9596 44.3066C32.2925 44.3509 32.0256 44.883 32.0256 44.883C32.0256 44.883 31.1805 44.75 30.9581 45.1491C30.7358 45.5481 30.7802 45.9029 30.6913 46.2576C30.6023 46.6123 30.6468 49.6274 31.7587 51.7558C32.6483 53.485 32.7373 56.2341 32.7373 56.2341L36.8292 55.3917Z" fill="#FACBB6"/>
<path d="M115.243 46.2132H14.9016V48.2972H115.243V46.2132Z" fill="#01384F"/>
<path d="M56.9775 92.4159C56.9775 92.4159 54.2644 93.8348 52.6632 93.9678C51.062 94.1008 47.4593 91.7951 45.9915 89.8441C44.5238 87.8488 44.5238 87.6714 42.8336 85.8978C41.1435 84.1242 38.9641 79.2468 38.3859 77.2515C37.8521 75.2562 35.4948 71.1768 35.2279 70.2457C34.9611 69.3145 33.8491 65.4569 33.3599 63.4616C32.8706 61.3333 32.6038 54.6379 32.6038 54.6379L36.7402 54.3275C36.7402 54.3275 40.2984 63.5946 41.5438 66.0777C42.7891 68.5608 42.122 70.1127 43.3674 72.0637C44.6127 74.0146 48.9715 78.8477 50.039 81.7742C51.1065 84.7006 53.6417 85.0997 55.1095 88.2922C56.5772 91.396 56.9775 92.4159 56.9775 92.4159Z" fill="#FACBB6"/>
<path d="M72.8562 92.6376C72.8562 92.6376 75.5693 94.0564 77.1705 94.1895C77.6153 94.2338 78.1935 94.0564 78.8607 93.7904C78.9941 93.7461 79.0831 93.7017 79.2165 93.613C81.1735 92.6819 83.1305 91.0413 83.8422 89.9771C85.2655 88.0262 85.3099 87.8045 86.9556 86.0752C87.8452 85.144 88.9126 83.3261 89.7577 81.5081C90.5138 79.9119 91.1365 78.36 91.4034 77.4288C91.9371 75.4335 94.2944 71.3542 94.5613 70.4231C96.3404 63.7277 96.8297 64.4371 97.141 54.6823L93.0046 54.4606C93.0046 54.4606 89.4909 63.772 88.2455 66.2551C87.0001 68.7381 87.6673 70.29 86.4219 72.241C85.2655 74.0146 81.5738 78.1826 80.1061 81.1091C79.9726 81.4195 79.8392 81.6855 79.7502 81.9515C79.3944 82.8827 78.9052 83.5921 78.327 84.1686C77.1261 85.4101 75.6583 86.2969 74.6798 88.4696C73.2565 91.6621 72.8562 92.6376 72.8562 92.6376Z" fill="#FACBB6"/>
<path d="M98.2084 182.914C97.7191 181.806 95.4063 172.672 94.3388 167.351C93.2269 162.03 91.0475 155.556 90.3803 154.537C89.7131 153.517 87.1334 145.225 86.4663 141.722C85.7991 138.219 77.971 123.321 77.6152 122.612C77.2594 121.902 76.4143 119.685 76.4143 119.685L65.1615 120.528L53.9086 119.685C53.9086 119.685 53.0635 121.902 52.7077 122.612C52.3519 123.321 43.6343 139.151 42.9671 142.653C42.2999 146.156 40.6098 153.561 39.9426 154.537C39.2754 155.556 37.096 161.986 35.9841 167.351C34.8722 172.672 32.6038 181.806 32.1145 182.914C31.6253 184.023 36.2954 184.112 36.2954 184.112C36.2954 184.112 43.1005 170.588 44.6128 168.105C46.125 165.622 47.5483 161.365 47.7262 158.616C47.9041 155.911 49.8611 154.448 51.5513 152.408C53.2414 150.324 61.4698 134.628 62.9821 133.209C64.7612 131.524 65.6507 131.568 67.3853 133.209C68.8976 134.628 77.126 150.324 78.8161 152.408C80.5063 154.492 82.4633 155.911 82.6412 158.616C82.8191 161.321 84.2424 165.622 85.7546 168.105C87.2669 170.588 94.072 184.112 94.072 184.112C94.072 184.112 98.6976 184.023 98.2084 182.914Z" fill="#498CCA"/>
<path d="M97.8525 181.806C97.8525 181.806 100.165 184.865 101.5 185.575C102.834 186.284 107.682 188.28 108.438 189.92C108.972 191.073 108.216 193.334 103.59 192.581C98.92 191.827 97.3188 189.344 95.94 189.033C94.5167 188.723 93.0045 187.659 92.9155 185.575C92.8266 183.491 93.6716 183.89 93.4937 183.136C93.2713 182.382 97.8525 181.806 97.8525 181.806Z" fill="#01384F"/>
<path d="M32.3813 181.939C32.3813 181.939 30.2909 184.865 28.9565 185.575C27.6222 186.284 22.7741 188.28 22.018 189.92C21.4843 191.073 22.2404 193.334 26.8661 192.581C31.5362 191.827 33.1374 189.344 34.5163 189.033C35.9395 188.723 37.4518 187.659 37.5407 185.575C37.6297 183.491 36.7846 183.89 36.9625 183.136C37.1849 182.382 32.3813 181.939 32.3813 181.939Z" fill="#01384F"/>
<path d="M79.2164 93.8347C77.9711 89.5781 79.8391 80.6213 79.8391 80.6213C77.4373 79.6015 74.3239 80.4883 72.9896 80.4883C71.6552 80.4883 68.0081 79.4685 68.0081 79.4685H65.0281H62.0925C62.0925 79.4685 58.4454 80.4883 57.111 80.4883C55.7767 80.4883 52.6633 79.6015 50.2615 80.6213C50.2615 80.6213 52.1295 89.7111 50.8842 93.9678C50.8842 93.9678 53.7752 101.949 54.4869 103.102C55.1985 104.299 54.4869 108.644 54.4869 109.753C54.4424 111.305 54.22 115.828 53.9086 119.641C53.9086 119.641 57.4669 121.769 65.0725 121.946C72.6337 121.459 76.4588 119.641 76.4588 119.641C75.9696 115.074 75.6582 111.172 75.4803 109.709C75.3469 108.6 74.9466 104.299 75.6582 103.102C76.3254 101.949 79.2164 93.8347 79.2164 93.8347Z" fill="#436DEE"/>
<path d="M87.1779 80.444C88.3788 80.5326 89.0905 81.0204 89.9356 81.2864C89.8911 81.3751 89.8466 81.4638 89.8021 81.5525C88.9571 83.3704 87.8896 85.1884 87 86.1195C85.3988 87.8045 85.3099 88.0705 84.02 89.7998C82.997 89.7998 82.152 89.8885 81.7072 90.1545C80.8621 90.7309 79.8836 92.5489 79.3943 93.5244C79.2164 93.9234 79.083 94.1895 79.083 94.1895C79.083 94.1895 79.0385 94.0121 78.9941 93.7461C78.7272 92.2828 78.0155 87.5384 78.5938 83.9025C78.8161 82.6166 79.172 81.4638 79.8391 80.6213C79.8391 80.6213 80.017 80.71 80.2839 80.7987C80.9511 81.0647 82.152 81.5525 82.8636 81.5968C83.7976 81.7298 85.3099 80.2666 87.1779 80.444Z" fill="#FACBB6"/>
<path d="M50.8843 93.9678C50.8843 93.9678 50.7953 93.746 50.6174 93.3913C50.1726 92.4602 49.2386 90.7309 48.3935 90.1545C47.9487 89.8441 47.0592 89.7554 45.9917 89.7998C44.5684 87.8488 44.5239 87.6271 42.8783 85.8978C41.9887 84.9667 40.9212 83.1487 40.0762 81.3308C40.9657 81.0647 41.7218 80.577 42.9672 80.444C44.8353 80.2666 46.303 81.7298 47.2816 81.6411C47.9042 81.5968 49.0607 81.1534 49.7278 80.8874C50.0836 80.7543 50.306 80.6213 50.306 80.6213C50.9732 81.4638 51.329 82.6166 51.5514 83.9468C52.0407 87.6714 51.1956 93.3027 50.8843 93.9678Z" fill="#FACBB6"/>
<path d="M68.8086 74.6797C68.8086 74.6797 68.4083 77.8279 69.3423 79.7345C69.3423 79.7345 70.2764 83.8582 65.6952 84.1685C61.114 84.4789 60.8916 80.3553 60.8916 80.3553C60.8916 80.3553 61.9591 78.8477 61.1585 74.8571C60.3134 70.8665 68.8086 74.6797 68.8086 74.6797Z" fill="#FACBB6"/>
<path d="M65.7396 58.4512C65.7396 58.4512 71.6551 59.2493 70.988 68.6938C70.2763 78.1383 65.0724 77.4732 64.7166 77.4732C64.3608 77.4732 59.4682 77.7392 58.8456 66.2551C58.8011 66.2551 58.4453 57.7417 65.7396 58.4512Z" fill="#FACBB6"/>
<path d="M70.9435 66.0334C70.9435 66.0334 71.5662 65.3239 71.8331 66.0334C72.0999 66.7428 71.0769 69.8466 70.988 70.1127C70.988 70.1127 70.8546 70.3787 70.7211 70.2457C70.5432 70.0683 70.9435 66.0334 70.9435 66.0334Z" fill="#FACBB6"/>
<path d="M58.9348 66.1664C58.9348 66.1664 58.2676 65.457 58.0452 66.1664C57.8229 66.8758 58.9348 70.0683 58.9793 70.2014C58.9793 70.2014 59.1127 70.4674 59.2461 70.3344C59.424 70.2013 58.9348 66.1664 58.9348 66.1664Z" fill="#FACBB6"/>
<path d="M71.0326 67.4523L70.232 68.6051C70.232 68.6051 70.1875 66.0777 70.0541 65.6786C69.9207 65.2796 70.1875 63.905 70.0541 63.639C69.9207 63.3729 66.0066 64.5258 59.5574 63.9937C59.5574 63.9937 60.3135 66.2551 59.9132 66.4324C59.5129 66.6098 59.7798 69.4032 59.7798 69.4032L59.0681 68.6051C59.0681 68.6051 58.1786 63.8607 58.223 63.0626C58.312 61.9984 57.8227 57.0323 66.9407 57.6974C67.9636 57.7861 68.9866 58.1408 69.8317 58.7616C70.7657 59.471 71.7442 60.5795 71.6998 62.1314C71.6108 64.1711 71.0326 67.4523 71.0326 67.4523Z" fill="#01384F"/>
<path d="M61.5144 76.0099C61.5144 76.0099 64.2275 79.0251 68.3195 75.8769C68.3195 75.8769 67.2075 78.227 64.7613 78.3156C62.315 78.4043 61.5144 76.0099 61.5144 76.0099Z" fill="#FACBB6"/>
<path d="M58.0007 80.3996C58.0007 80.3996 58.1342 91.1743 65.0727 91.4847V79.1581C65.0727 79.1581 61.8258 79.2911 58.0007 80.3996Z" fill="#FACBB6"/>
<path d="M72.1 80.3996C72.1 80.3996 71.9666 91.1743 65.0281 91.4847V79.1581C65.0726 79.1581 68.2749 79.2911 72.1 80.3996Z" fill="#FACBB6"/>
<path d="M92.6042 45.6812C92.6042 45.6812 92.4707 48.3859 93.1824 49.0067C93.9385 49.6275 94.0274 48.652 94.0274 48.652C94.0274 48.652 93.894 49.6275 94.7391 49.7605C95.5397 49.9378 95.6286 48.785 95.6286 48.785C95.6286 48.785 95.7621 49.5388 96.6072 49.4057C97.4967 49.2727 97.3188 48.3416 97.3188 48.3416C97.3188 48.3416 98.1194 49.3171 98.6976 48.4303C99.6316 46.967 98.831 45.1491 98.831 45.1491C98.831 45.1491 98.5642 44.75 97.7636 44.883C97.7636 44.883 97.2298 43.8189 95.9845 44.5283C95.9845 44.5283 94.7391 43.8189 94.2498 44.8387C94.2054 44.8387 92.8266 44.1293 92.6042 45.6812Z" fill="#F6B7A0"/>
<path d="M37.1851 45.6812C37.1851 45.6812 37.3186 48.3859 36.6069 49.0067C35.8508 49.6275 35.7618 48.652 35.7618 48.652C35.7618 48.652 35.8953 49.6275 35.0502 49.7605C34.2496 49.9378 34.1607 48.785 34.1607 48.785C34.1607 48.785 34.0272 49.5388 33.1821 49.4057C32.2926 49.2727 32.4705 48.3416 32.4705 48.3416C32.4705 48.3416 31.6699 49.3171 31.0917 48.4303C30.1577 46.967 30.9583 45.1491 30.9583 45.1491C30.9583 45.1491 31.2251 44.75 32.0257 44.883C32.0257 44.883 32.5595 43.8189 33.8048 44.5283C33.8048 44.5283 35.0502 43.8189 35.5395 44.8387C35.5839 44.8387 36.9627 44.1293 37.1851 45.6812Z" fill="#F6B7A0"/>
<path d="M118.935 29.896H113.642V64.8805H118.935V29.896Z" fill="#01384F"/>
<path d="M124.317 33.4432H118.535V61.3333H124.317V33.4432Z" fill="#01384F"/>
<path d="M129.61 37.2122H123.694V57.5644H129.61V37.2122Z" fill="#01384F"/>
<path d="M11.5231 64.9124H16.8159L16.8159 29.9279H11.5231L11.5231 64.9124Z" fill="#01384F"/>
<path d="M6.22474 61.3648H12.4961L12.4961 33.4748H6.22474L6.22474 61.3648Z" fill="#01384F"/>
<path d="M0.865433 57.5957H6.82544L6.82544 37.2435H0.865433L0.865433 57.5957Z" fill="#01384F"/>
<path d="M147.845 59.5597C147.801 59.2493 147.89 58.8059 147.934 58.4512C148.29 56.4115 151.359 51.9775 153.85 48.1199C156.207 44.4396 158.164 40.9811 158.164 40.9811L161.322 42.0453C161.322 42.0453 158.787 45.2821 156.163 51.002C153.672 56.4115 152.16 59.737 150.514 62.2201C149.669 62.9739 147.801 60.4021 147.845 59.5597Z" fill="#FACBB6"/>
<path d="M147.979 60.0031C147.401 58.8502 150.692 56.8993 151.937 58.5842C154.606 63.1069 169.906 76.0099 165.903 79.7345C165.903 79.7345 167.727 88.4252 164.614 83.7251C163.813 82.5723 155.807 72.0636 153.494 68.8268C152.249 67.0532 148.824 61.289 147.979 60.0031Z" fill="#FACBB6"/>
<path d="M159.009 45.5038C159.009 45.5038 160.299 43.2424 161.233 42.533C161.989 41.9566 162.167 41.5575 163.235 40.316C164.435 38.9858 164.613 39.0301 165.103 38.7197C165.592 38.4094 165.325 37.2565 163.946 38.1433C162.567 39.0301 162.39 39.3405 162.39 39.3405C162.39 39.3405 163.679 37.3008 164.347 36.1923C165.014 35.0838 165.681 34.2414 165.103 34.0197C164.791 33.8866 164.391 34.1527 163.457 35.5716C162.523 36.9905 161.411 38.5424 161.411 38.5424C161.411 38.5424 164.925 33.0885 164.302 32.6894C163.902 32.4234 163.457 32.7338 162.434 34.5074C161.411 36.2367 160.521 37.9659 160.521 37.9659C160.521 37.9659 162.834 33.0442 163.012 32.6894C163.235 32.2017 162.567 31.4036 161.678 33.3102C160.788 35.2168 159.632 37.6999 159.632 37.6999C159.632 37.6999 161.455 33.3102 160.922 33.0442C160.255 32.6451 159.632 35.0838 158.653 37.6112C157.675 40.1386 157.942 40.183 157.897 40.9368C157.853 41.6905 156.607 44.1736 156.607 44.1736L159.009 45.5038Z" fill="#FACBB6"/>
<path d="M200.64 60.8012C200.685 60.4908 200.64 60.0031 200.596 59.6927C200.374 57.6087 197.571 53.0416 195.348 49.0067C193.213 45.1934 191.478 41.6462 191.478 41.6462L188.276 42.533C188.276 42.533 190.588 45.9029 192.857 51.8001C194.992 57.3427 196.326 60.7569 197.794 63.3286C198.639 64.038 200.596 61.5993 200.64 60.8012Z" fill="#FACBB6"/>
<path d="M200.507 61.2003C201.13 60.0917 197.972 57.9191 196.637 59.5153C193.702 63.8607 177.645 75.7882 181.382 79.7345C181.382 79.7345 178.935 88.1592 182.36 83.6808C183.205 82.5723 191.923 72.6844 194.414 69.5806C195.792 67.9843 199.529 62.4418 200.507 61.2003Z" fill="#FACBB6"/>
<path d="M190.366 46.0802C190.366 46.0802 189.254 43.7745 188.365 42.9764C187.653 42.3556 187.519 41.9566 186.497 40.6707C185.385 39.2962 185.207 39.2962 184.717 38.9414C184.228 38.5867 184.584 37.4782 185.874 38.4094C187.208 39.3848 187.342 39.6952 187.342 39.6952C187.342 39.6952 186.185 37.5669 185.607 36.4584C185.029 35.3499 184.406 34.4631 184.984 34.2414C185.296 34.1527 185.696 34.4187 186.541 35.882C187.386 37.3452 188.409 38.9858 188.409 38.9858C188.409 38.9858 185.251 33.3546 185.918 32.9998C186.319 32.7781 186.763 33.1329 187.653 34.9065C188.587 36.7244 189.388 38.498 189.388 38.498C189.388 38.498 187.386 33.4432 187.253 33.0442C187.03 32.5564 187.786 31.8026 188.542 33.7536C189.299 35.7046 190.322 38.2763 190.322 38.2763C190.322 38.2763 188.765 33.798 189.299 33.5319C190.01 33.1772 190.499 35.6603 191.3 38.232C192.101 40.8037 191.878 40.8481 191.834 41.6019C191.834 42.3556 192.946 44.9274 192.946 44.9274L190.366 46.0802Z" fill="#FACBB6"/>
<path d="M172.041 56.9879C172.041 56.9879 169.862 62.5748 171.863 65.2796C173.82 67.94 175.866 69.3589 175.377 71.5316C174.888 73.7042 174.132 76.3203 174.932 78.0939C175.733 79.8675 176.534 80.3109 175.333 82.3949C174.087 84.4789 174.354 86.6073 175.066 88.4696C175.778 90.3319 176.133 92.3715 175.199 94.1451C175.199 94.1451 177.379 92.6376 176.889 90.4205C176.4 88.2035 176.222 85.8535 177.112 84.1685C178.001 82.4836 178.713 81.2421 177.912 78.9807C177.112 76.675 177.957 75.2118 178.713 72.6401C179.514 70.0683 180.67 68.073 179.603 65.989C178.535 63.9494 178.135 62.1757 178.001 60.8455C177.823 58.8502 178.846 55.1256 173.82 55.8351C171.018 56.1898 173.687 56.1898 172.041 56.9879Z" fill="#01384F"/>
<path d="M169.417 56.9879C169.417 56.9879 167.238 62.5748 169.239 65.2796C171.196 67.94 173.242 69.3589 172.753 71.5316C172.264 73.7042 171.508 76.3203 172.308 78.0939C173.109 79.8675 173.909 80.3109 172.709 82.3949C171.463 84.4789 171.73 86.6073 172.442 88.4696C173.153 90.3319 173.509 92.3715 172.575 94.1451C172.575 94.1451 174.755 92.6376 174.265 90.4205C173.776 88.2035 173.598 85.8535 174.488 84.1685C175.377 82.4836 176.044 81.2421 175.288 78.9807C174.488 76.675 175.333 75.2118 176.089 72.6401C176.889 70.0683 178.046 68.073 176.978 65.989C175.911 63.9494 175.511 62.1757 175.377 60.8455C175.199 58.8502 176.222 55.1256 171.196 55.8351C168.394 56.1898 171.063 56.1898 169.417 56.9879Z" fill="#01384F"/>
<path d="M175.955 58.0964C175.955 58.0964 177.156 62.6191 175.199 65.2796C173.242 67.94 171.196 69.3589 171.685 71.5316C172.175 73.7042 172.931 76.3203 172.13 78.0939C171.33 79.8675 170.529 80.3109 171.73 82.3949C172.975 84.4789 172.708 86.6073 171.997 88.4696C171.285 90.3319 170.929 92.3715 171.863 94.1451C171.863 94.1451 169.684 92.6376 170.173 90.4205C170.662 88.2035 170.84 85.8535 169.951 84.1685C169.061 82.4836 168.35 81.2421 169.15 78.9807C169.951 76.675 169.106 75.2118 168.35 72.6401C167.549 70.0683 166.393 68.073 167.46 65.989C168.528 63.9494 168.928 62.1757 169.061 60.8455C169.239 58.8502 168.216 55.1256 173.242 55.8351C176 56.1898 174.31 57.2983 175.955 58.0964Z" fill="#01384F"/>
<path d="M170.618 65.989C171.285 63.2399 167.015 60.9342 169.773 55.4804C171.063 52.9086 173.998 52.2435 174.754 58.8059C175.422 64.5701 171.774 70.2457 173.42 78.9807C173.909 81.6855 174.799 86.0308 174.087 88.2478C173.376 90.4649 173.02 92.8592 173.954 94.8989C173.954 94.8989 170.396 93.3026 171.107 90.7309C173.865 81.1977 170.307 86.4742 170.485 79.0694C170.529 76.409 169.017 74.8127 168.794 73.0835C168.35 69.0485 170.796 68.9598 170.618 65.989Z" fill="#01384F"/>
<path d="M177.29 65.989C176.622 63.2399 179.514 61.1116 176.711 55.7021C175.422 53.1303 169.551 51.5341 168.794 58.0965C168.127 63.8607 177.868 70.2457 173.287 80.0005C172.13 82.4836 173.064 86.0308 173.776 88.2478C174.488 90.4649 174.843 92.8592 173.909 94.8989C173.909 94.8989 177.468 93.3026 176.756 90.7309C173.998 81.1977 177.557 86.4742 177.379 79.0694C177.334 76.409 178.846 74.8127 179.069 73.0835C179.558 69.0485 177.112 68.9598 177.29 65.989Z" fill="#01384F"/>
<path d="M164.08 65.856C164.08 65.856 166.259 71.7089 171.686 71.8419L173.776 72.2853L165.192 62.7522L164.08 65.856Z" fill="#01384F"/>
<path d="M183.027 66.2994C183.027 66.2994 180.359 72.108 175.689 71.8863L173.598 72.3297L182.182 62.7965L183.027 66.2994Z" fill="#01384F"/>
<path d="M182.983 61.4663C182.983 67.4522 178.758 72.2853 173.509 72.2853C168.261 72.2853 164.035 67.4522 164.035 61.4663C164.035 55.4803 168.261 50.6472 173.509 50.6472C178.758 50.6472 182.983 55.5247 182.983 61.4663Z" fill="#FACBB6"/>
<path d="M167.772 55.17C167.772 55.17 170.307 53.9284 172.886 55.9681C178.09 60.0918 182.316 59.6927 181.471 66.4324C181.248 68.2504 181.426 69.4919 183.072 66.2551C184.184 64.038 183.961 58.4512 183.961 57.254C184.006 53.086 178.891 47.0113 170.796 49.4944C168.394 50.2038 166.837 50.6473 167.772 55.17Z" fill="#01384F"/>
<path d="M169.639 54.3719C169.639 54.3719 167.282 57.2983 166.57 61.0229C165.948 64.3041 165.636 65.3239 166.748 68.4721C167.771 71.3542 164.658 67.6296 163.813 65.3239C162.968 62.9739 163.324 58.4955 163.324 57.2983C163.324 53.1303 165.681 51.4011 167.994 52.0218C170.396 52.6426 169.951 51.8888 169.639 54.3719Z" fill="#01384F"/>
<path d="M170.396 70.024C170.396 70.024 171.641 73.2608 170.396 74.9458C169.15 76.6307 177.379 76.0099 176.934 75.1675C176.356 74.059 176.222 71.5759 176.711 70.0683C176.756 70.024 173.331 70.1127 170.396 70.024Z" fill="#FACBB6"/>
<path d="M153.45 154.049C153.049 154.315 152.693 154.758 152.427 155.113C150.692 157.286 148.424 164.602 147.534 169.745C146.645 174.889 143.976 182.028 143.976 182.028L148.201 183.713C148.201 183.713 150.425 175.377 153.316 169.169C156.83 161.587 157.052 159.724 157.897 155.911C157.764 154.448 154.295 153.295 153.45 154.049Z" fill="#FACBB6"/>
<path d="M152.649 154.891C152.249 156.532 156.741 158.439 157.853 155.911C159.676 150.635 167.504 133.431 169.017 127.977C169.017 127.977 163.457 116.67 159.899 123.188C157.497 127.578 155.407 139.727 153.939 145.269C153.227 147.797 152.693 152.807 152.649 154.891Z" fill="#E8B487"/>
<path d="M177.379 94.9432C177.112 91.7064 180.047 88.8686 181.337 86.4299C183.339 82.661 183.427 76.4977 183.427 76.4977C182.627 76.0099 173.598 74.5467 173.598 74.5467C173.598 74.5467 164.569 76.0099 163.768 76.4977C163.768 76.4977 163.768 83.3261 165.725 87.0063C167.015 89.445 169.328 96.5395 169.106 99.732C168.928 102.215 165.414 106.339 164.88 110.418C163.768 118.931 162.39 122.168 163.146 128.642C163.413 130.77 172.13 124.208 173.02 126.824C173.02 126.824 173.376 126.913 173.598 126.824C173.776 126.913 174.176 126.824 174.176 126.824C175.066 124.208 183.783 130.815 184.05 128.642C184.851 122.035 183.472 118.488 182.316 109.93C181.737 105.718 177.556 97.1603 177.379 94.9432Z" fill="#FACBB6"/>
<path d="M174.577 127.932L174.265 113.744H164.302C162.301 117.202 160.299 120.971 159.009 125.139C156.963 130.46 155.229 140.392 153.939 145.269C153.272 147.797 152.871 152.586 152.16 154.758C151.448 156.975 148.646 161.897 147.534 169.745C147.178 172.317 146.2 175.421 145.399 177.86L149.491 179.279C150.425 176.352 151.759 172.494 153.272 169.169C156.785 161.587 157.008 159.724 157.853 155.911C157.853 155.911 157.853 155.911 157.853 155.867C159.543 150.945 166.793 136.357 169.017 129.795C170.396 127.267 174.577 127.932 174.577 127.932Z" fill="#498CCA"/>
<path d="M165.859 75.9212C165.859 75.9212 165.548 79.6902 165.103 85.4101C165.103 85.4101 165.414 86.7846 165.592 88.6469C165.859 92.2385 166.971 97.2046 166.748 100.087C166.437 103.412 165.147 108.467 165.147 108.467C165.147 108.467 170.218 109.354 182.138 108.201C182.138 108.201 180.492 100.175 180.448 99.4216C180.181 95.2093 181.115 91.8394 181.426 89.0016C181.648 87.0063 181.96 85.0997 181.96 85.0997C181.96 85.0997 179.78 82.2619 181.204 75.8326L179.647 75.5222C179.647 75.5222 179.603 83.6365 174.043 83.6808C167.905 83.7251 168.439 80.1336 167.594 75.5222L165.859 75.9212Z" fill="#436DEE"/>
<path d="M193.835 154.049C194.236 154.315 194.591 154.758 194.858 155.113C196.593 157.286 198.861 164.602 199.751 169.745C200.64 174.889 203.309 182.028 203.309 182.028L199.084 183.713C199.084 183.713 196.86 175.377 193.969 169.169C190.455 161.587 190.233 159.724 189.387 155.911C189.521 154.448 192.99 153.295 193.835 154.049Z" fill="#FACBB6"/>
<path d="M194.68 154.891C195.081 156.532 190.588 158.439 189.476 155.911C187.653 150.635 179.825 133.431 178.312 127.977C178.312 127.977 183.872 116.67 187.43 123.188C189.832 127.578 191.923 139.727 193.39 145.269C194.058 147.797 194.591 152.807 194.68 154.891Z" fill="#E8B487"/>
<path d="M173.064 127.844L173.02 113.744H182.983C184.984 117.202 186.986 120.971 188.276 125.139C190.322 130.46 192.056 140.392 193.346 145.269C194.013 147.797 194.414 152.586 195.125 154.758C195.837 156.975 198.639 161.897 199.751 169.745C200.107 172.317 201.13 175.421 201.886 177.86L197.794 179.279C196.86 176.352 195.525 172.494 194.013 169.169C190.5 161.587 190.277 159.724 189.432 155.911C189.432 155.911 189.432 155.911 189.432 155.867C187.742 150.945 180.492 136.357 178.268 129.795C177.779 127.844 172.842 127.755 173.064 127.844Z" fill="#498CCA"/>
<path fill-rule="evenodd" clip-rule="evenodd" d="M203.487 182.116L202.953 180.343L198.328 181.23L198.683 183.047C198.683 183.047 203.087 183.801 203.487 182.116Z" fill="white"/>
<path d="M182.671 110.994H164.658L164.124 113.699H183.205L182.671 110.994Z" fill="#C6C6C6"/>
<path d="M184.006 19.1213C191.967 23.9101 194.547 34.2414 189.743 42.1783C184.94 50.1152 174.576 52.6869 166.615 47.8982C158.653 43.1094 156.074 32.7781 160.877 24.8412C165.636 16.9043 176 14.3326 184.006 19.1213Z" fill="#01384F"/>
<path d="M198.732 181.47C198.732 181.47 199.185 183.065 198.687 184.531C198.188 185.997 197.871 188.454 198.913 189.834C200 191.213 201.766 191.817 204.393 191.17C207.019 190.524 206.567 188.583 205.751 186.945C204.936 185.264 202.898 182.03 202.581 180.952C202.31 179.874 198.732 181.47 198.732 181.47Z" fill="#01384F"/>
<path d="M143.861 182.091C143.861 182.091 142.745 184.179 141.495 184.831C140.245 185.484 135.021 187.919 135.691 190.007C136.36 192.095 143.459 191.703 144.799 190.007C146.183 188.311 147.254 189.137 147.656 187.528C148.058 185.875 147.79 182.7 147.79 182.7C147.79 182.7 146.585 182.657 145.736 182.396C144.933 182.135 144.933 181.7 143.861 182.091Z" fill="#01384F"/>
</svg>
