<svg width="276" height="276" viewBox="0 0 276 276" fill="none" xmlns="http://www.w3.org/2000/svg">
<path d="M256.067 170.711C253.562 170.711 251.237 171.478 249.269 172.781C248.834 166.06 243.238 160.744 236.389 160.744C234.217 160.744 232.172 161.281 230.383 162.227C230.383 162.124 230.383 161.997 230.383 161.894C230.383 148.146 219.215 136.978 205.467 136.978C198.694 136.978 192.587 139.661 188.089 144.031C187.475 141.092 184.715 138.946 181.521 139.303C178.659 139.61 176.384 142.012 176.205 144.874C175.975 148.376 178.761 151.263 182.211 151.263C182.467 151.263 182.697 151.238 182.927 151.212C181.393 154.432 180.55 158.061 180.55 161.869C180.55 161.971 180.55 162.073 180.55 162.176L137.361 151.289L137.31 151.314L137.233 151.289V151.314L94.0443 162.201C94.0443 162.099 94.0443 161.997 94.0443 161.894C94.0443 158.087 93.1754 154.483 91.6676 151.238C91.8976 151.263 92.1532 151.289 92.3832 151.289C95.8332 151.289 98.5932 148.401 98.3887 144.9C98.2099 142.012 95.9354 139.636 93.0732 139.329C89.8787 138.971 87.1443 141.118 86.5054 144.057C82.0076 139.687 75.8743 137.003 69.1276 137.003C55.3787 137.003 44.211 148.171 44.211 161.92C44.211 162.022 44.211 162.15 44.211 162.252C42.4221 161.307 40.3776 160.77 38.2054 160.77C31.3565 160.77 25.7854 166.086 25.3254 172.807C23.3576 171.503 21.0065 170.737 18.5276 170.737C11.3976 170.711 5.62207 176.896 5.62207 184.511V185.073C5.62207 208.048 24.2521 226.678 47.2265 226.678H137.233H137.361H231.048C252.003 226.678 268.972 209.709 268.972 188.753V184.511C268.972 176.896 263.197 170.711 256.067 170.711Z" fill="#F2F2F2"/>
<path d="M140.785 80.5H137.463H137.335H137.208H133.885C131.074 98.6444 99.3855 161.511 51.0854 161.511C62.6877 161.511 132.48 161.511 137.208 161.511C137.387 161.511 137.463 161.511 137.463 161.511C142.191 161.511 211.983 161.511 223.585 161.511C175.285 161.511 143.597 98.6444 140.785 80.5Z" fill="#F2F2F2"/>
<path d="M268.231 243.621H7.76911C6.31244 243.621 5.11133 242.42 5.11133 240.963V225.247C5.11133 223.79 6.31244 222.589 7.76911 222.589H268.231C269.688 222.589 270.889 223.79 270.889 225.247V240.963C270.889 242.446 269.688 243.621 268.231 243.621Z" fill="#F7F7F7"/>
<path d="M146.638 137.617C146.842 135.189 147.455 131.943 146.638 129.924C145.82 127.906 144.21 126.474 142.574 125.861C140.964 125.248 138.715 124.047 136.697 124.251C134.678 124.456 131.637 126.474 130.614 127.497C129.592 128.519 128.187 132.148 128.187 133.579C128.187 134.984 129.413 136.824 129.797 138.026C130.18 139.227 129.797 142.268 132.429 143.494C135.061 144.721 135.47 145.718 138.92 144.9C142.37 144.082 145.615 142.268 145.82 141.45C146.024 140.632 146.638 137.617 146.638 137.617Z" fill="#0E538C"/>
<path d="M138 142.14C148.606 142.14 157.294 150.829 157.294 161.434V193.481C157.294 194.81 156.196 195.909 154.867 195.909H121.133C119.804 195.909 118.706 194.81 118.706 193.481V161.434C118.706 150.803 127.394 142.14 138 142.14Z" fill="#E2E2E2"/>
<path d="M201.378 180.857H74.6221V184.434H201.378V180.857Z" fill="#DCF2FF"/>
<path d="M192.28 184.434H83.7456V234.038H192.28V184.434Z" fill="#B6E7FF"/>
<path d="M159.824 169.612L156.732 153.206C156.093 148.452 140.147 144.491 140.147 144.491C138.92 144.491 136.876 144.491 135.649 144.491C135.649 144.491 119.626 148.733 118.987 153.487L115 169.817C114.003 177.228 120.162 176.691 126.807 178.863L135.674 181.777C136.901 181.777 138.946 181.777 140.172 181.777L149.04 178.863C155.659 176.691 160.847 177.023 159.824 169.612Z" fill="#436DEE"/>
<path d="M155.735 157.064V157.192L155.147 182.237C154.841 182.492 154.432 182.646 153.997 182.646H121.44C121.337 182.646 121.235 182.646 121.159 182.62L120.494 157.064H155.735Z" fill="#2A94F4"/>
<path d="M133.375 141.527L134.729 148.299L138.077 154.151L140.862 148.299L141.961 141.424L133.375 141.527Z" fill="#FCD2B1"/>
<path d="M145.666 135.061C145.666 142.421 144.389 145.309 139.789 146.996C138.613 147.43 137.361 147.379 136.16 147.021C131.636 145.692 130.333 142.344 130.333 135.061C130.333 130.384 133.067 128.877 137.31 128.877C141.552 128.877 145.666 130.384 145.666 135.061Z" fill="#FFE3CA"/>
<path d="M130.79 140.636C131.633 140.549 132.19 139.261 132.035 137.759C131.881 136.257 131.072 135.109 130.23 135.196C129.387 135.283 128.83 136.571 128.985 138.073C129.14 139.575 129.948 140.723 130.79 140.636Z" fill="#FFE3CA"/>
<path d="M147.233 138.092C147.387 136.59 146.83 135.302 145.988 135.215C145.145 135.128 144.337 136.276 144.182 137.778C144.027 139.28 144.585 140.568 145.427 140.655C146.269 140.742 147.078 139.595 147.233 138.092Z" fill="#FFE3CA"/>
<path d="M156.732 158.802L155.812 180.831C155.812 181.393 155.557 181.904 155.148 182.237C154.841 182.492 154.432 182.646 153.998 182.646H121.44C121.338 182.646 121.236 182.646 121.159 182.62C120.29 182.492 119.626 181.726 119.626 180.831L118.706 158.802C118.706 157.806 119.523 156.988 120.52 156.988H154.918C155.071 156.988 155.224 157.013 155.378 157.039C155.506 157.064 155.633 157.116 155.736 157.167C156.323 157.499 156.732 158.112 156.732 158.802Z" fill="#2A94F4"/>
<path d="M137.668 173.241C139.559 173.241 141.092 171.708 141.092 169.817C141.092 167.925 139.559 166.392 137.668 166.392C135.776 166.392 134.243 167.925 134.243 169.817C134.243 171.708 135.776 173.241 137.668 173.241Z" fill="white"/>
<path d="M100.126 181.777H97.6219C96.3442 181.777 95.2964 180.729 95.2964 179.451V171.963H102.452V179.451C102.452 180.729 101.404 181.777 100.126 181.777Z" fill="#436DEE"/>
<path opacity="0.59" d="M99.1555 171.094C99.0277 171.094 98.9255 171.043 98.8233 170.992C98.7211 170.916 98.6444 170.813 98.5677 170.711C98.44 170.507 98.3633 170.251 98.3633 169.97C98.3633 169.689 98.5166 169.382 98.6955 169.203C98.8744 168.999 99.0277 168.871 99.1044 168.769C99.2066 168.667 99.2322 168.616 99.2833 168.488C99.3088 168.386 99.3344 168.232 99.3344 168.079C99.3344 167.772 99.2066 167.389 99.1044 166.954C99.3088 167.031 99.5133 167.159 99.6922 167.312C99.8711 167.466 100.024 167.67 100.101 167.9C100.203 168.13 100.254 168.386 100.229 168.667C100.229 168.82 100.178 168.948 100.101 169.101C100.024 169.229 99.9477 169.357 99.8455 169.459C99.6666 169.663 99.4877 169.766 99.3855 169.868C99.2833 169.97 99.2066 170.021 99.1555 170.123C99.1044 170.226 99.0533 170.404 99.0533 170.558C99.0277 170.737 99.0277 170.916 99.1555 171.094Z" fill="#436DEE"/>
<path d="M101.609 177.841V177.228C102.529 177.228 103.168 176.947 103.423 176.41C103.628 176.001 103.576 175.516 103.27 175.132C102.912 174.672 102.324 174.468 101.66 174.596L101.558 174.008C102.452 173.854 103.295 174.136 103.781 174.774C104.215 175.337 104.292 176.078 103.985 176.691C103.755 177.126 103.168 177.841 101.609 177.841Z" fill="#436DEE"/>
<path d="M173.803 170.609L172.347 170.89L170.916 163.044L171.376 161.434L172.372 162.789L173.803 170.609Z" fill="#2A94F4"/>
<path d="M178.607 172.27L177.176 171.912L179.067 164.194L180.166 162.891L180.524 164.552L178.607 172.27Z" fill="#DCF2FF"/>
<path d="M178.02 171.401L176.538 171.222L177.458 163.3L178.378 161.894L178.94 163.479L178.02 171.401Z" fill="#80D5FF"/>
<path d="M180.269 166.392L180.166 168.999L179.911 175.081L179.655 181.777H171.299L170.966 175.081L170.634 168.999L170.506 166.392H180.269Z" fill="#436DEE"/>
<path d="M180.166 168.999L179.911 175.081H170.966L170.634 168.999H180.166Z" fill="#2A94F4"/>
<path d="M129.592 133.962C129.107 133.63 129.643 132.276 129.515 131.662C129.362 130.998 129.72 130.333 130.129 129.822C131.407 128.34 133.298 127.752 135.138 127.624C136.978 127.497 138.818 127.727 140.632 127.548C142.472 127.369 144.363 126.679 145.539 125.094C145.641 124.967 146.305 124.941 146.459 125.146C147.021 125.912 147.583 126.704 147.941 127.624C148.299 128.544 148.375 129.618 147.992 130.538C147.481 131.713 145.973 132.582 144.874 132.991C144.874 132.94 134.805 137.412 129.592 133.962Z" fill="#0E538C"/>
<path d="M143.188 132.352L145.411 137.003L146.638 131.534L143.188 132.352Z" fill="#0E538C"/>
<path d="M132.045 133.349C131.637 133.758 131.023 138 131.023 138L129.388 133.017L132.045 133.349Z" fill="#0E538C"/>
<path d="M192.229 184.511H83.7964V186.249H192.229V184.511Z" fill="#80D5FF"/>
<path d="M128.442 65.4989L121.823 74.0089L132.352 87.63L132.378 78.1489L128.442 65.4989Z" fill="#436DEE"/>
<path d="M146.229 65.5244L152.822 74.0344L142.268 87.6555V78.1489L146.229 65.5244Z" fill="#436DEE"/>
<path d="M141.066 76.59L140.683 80.5H133.86L133.579 76.59H141.066Z" fill="#0E538C"/>
<path d="M137.386 12.7778C137.386 12.7778 145.769 24.8144 148.554 38.64C148.605 38.8955 148.656 39.1511 148.708 39.4067C148.759 39.6622 148.81 39.9178 148.835 40.1733C149.219 42.4478 149.449 44.7733 149.449 47.0989C149.449 58.2667 145.973 70.8655 142.446 78.1489H132.378C128.851 70.84 125.248 58.2411 125.248 47.0733C125.248 44.7733 125.478 42.4478 125.861 40.1478C125.912 39.8922 125.963 39.6367 125.989 39.3811C126.04 39.1256 126.091 38.87 126.142 38.6144C128.979 24.8144 137.386 12.7778 137.386 12.7778Z" fill="#CCE9FF"/>
<path d="M137.387 12.7778C137.387 12.7778 145.77 24.8144 148.555 38.64C148.606 38.8955 148.657 39.1511 148.708 39.4067C145.233 41.8344 141.297 43.1378 137.362 43.1122C133.426 43.1122 129.516 41.8089 126.015 39.3811C126.066 39.1255 126.117 38.87 126.168 38.6144C128.98 24.8144 137.387 12.7778 137.387 12.7778Z" fill="#436DEE"/>
<path d="M126.168 38.6145C126.117 38.87 126.066 39.1256 126.014 39.3811C125.963 39.6367 125.912 39.8922 125.887 40.1478C127.522 41.2722 129.26 42.1411 131.049 42.7545C133.093 43.47 135.24 43.8278 137.361 43.8278C139.508 43.8278 141.629 43.47 143.673 42.78C145.462 42.1667 147.2 41.2978 148.836 40.1733C148.785 39.9178 148.759 39.6622 148.708 39.4067C148.657 39.1511 148.606 38.8956 148.555 38.64C145.207 41.0422 141.399 42.4222 137.361 42.4222C133.323 42.3967 129.516 41.0422 126.168 38.6145Z" fill="#436DEE"/>
<path d="M127.701 35.8033C128.775 31.7911 134.499 18.7067 136.543 15.8444C135.751 18.5278 129.03 34.5511 130.103 35.8033C128.698 35.9822 127.701 35.8033 127.701 35.8033Z" fill="white"/>
<path d="M138.664 65.5244L138.639 83.26L137.31 87.63L135.981 83.26L136.007 65.5244H138.664Z" fill="#436DEE"/>
<path d="M257.6 159.722C262.681 159.722 266.8 155.603 266.8 150.522C266.8 145.441 262.681 141.322 257.6 141.322C252.519 141.322 248.4 145.441 248.4 150.522C248.4 155.603 252.519 159.722 257.6 159.722Z" fill="#F2F2F2"/>
<path d="M231.661 146.433C232.861 146.433 233.833 145.461 233.833 144.261C233.833 143.061 232.861 142.089 231.661 142.089C230.461 142.089 229.489 143.061 229.489 144.261C229.489 145.461 230.461 146.433 231.661 146.433Z" fill="#F2F2F2"/>
<path d="M239.072 133.144C241.966 133.144 244.311 130.799 244.311 127.906C244.311 125.012 241.966 122.667 239.072 122.667C236.179 122.667 233.833 125.012 233.833 127.906C233.833 130.799 236.179 133.144 239.072 133.144Z" fill="#F2F2F2"/>
<path d="M25.6834 146.433C30.5527 146.433 34.5 142.486 34.5 137.617C34.5 132.747 30.5527 128.8 25.6834 128.8C20.8141 128.8 16.8667 132.747 16.8667 137.617C16.8667 142.486 20.8141 146.433 25.6834 146.433Z" fill="#F2F2F2"/>
<path d="M44.3387 146.433C45.5384 146.433 46.5109 145.461 46.5109 144.261C46.5109 143.061 45.5384 142.089 44.3387 142.089C43.139 142.089 42.1665 143.061 42.1665 144.261C42.1665 145.461 43.139 146.433 44.3387 146.433Z" fill="#F2F2F2"/>
<path d="M45.1056 124.2C47.9989 124.2 50.3445 121.854 50.3445 118.961C50.3445 116.068 47.9989 113.722 45.1056 113.722C42.2122 113.722 39.8667 116.068 39.8667 118.961C39.8667 121.854 42.2122 124.2 45.1056 124.2Z" fill="#F2F2F2"/>
<path d="M229.157 229.617C224.991 229.617 223.228 226.269 222.512 222.742C221.72 218.756 222.308 214.488 222.308 214.488H236.006C236.006 214.488 236.031 214.641 236.057 214.948C236.287 217.478 237.13 229.617 229.157 229.617Z" fill="#B6E7FF"/>
<path d="M236.006 214.513C236.006 214.82 232.939 215.05 229.157 215.05C225.375 215.05 222.308 214.82 222.308 214.513C222.308 214.207 225.375 213.977 229.157 213.977C232.939 213.977 236.006 214.207 236.006 214.513Z" fill="#85DDFF"/>
<path d="M212.111 176.563C212.111 176.563 219.318 187.552 223.662 194.248C227.981 200.943 229.131 202.349 229.642 204.521C230.154 206.693 230.614 214.667 230.614 214.667H231.176C231.176 214.667 231.534 207.92 230.869 205.697C230.205 203.473 230.46 202.604 230.767 200.279C231.074 197.953 231.482 194.248 229.131 191.667C226.78 189.086 227.394 186.556 226.576 184.869C225.758 183.157 219.369 181.112 218.526 179.349C217.734 177.586 214.13 176.512 212.111 176.563Z" fill="#436DEE"/>
<path opacity="0.26" d="M212.111 176.563C212.111 176.563 214.386 179.144 215.919 180.013C217.478 180.882 218.194 180.116 219.369 182.237C220.545 184.358 220.596 185.278 221.695 186.351C222.768 187.424 224.071 187.476 224.174 189.852C224.276 192.229 223.662 194.248 223.662 194.248C223.662 194.248 212.571 177.126 212.111 176.563Z" fill="white"/>
<path d="M228.927 214.667H228.416C228.416 214.667 228.262 211.166 226.857 209.453C225.962 208.354 222.155 207.102 218.372 205.62C216.302 204.802 214.232 203.908 212.673 202.911C208.278 200.126 204.112 191.156 203.755 189.546C203.627 188.983 203.576 188.651 203.576 188.421C203.576 187.987 203.806 187.936 204.163 187.501C204.342 187.297 204.879 187.373 205.518 187.552C207.409 188.14 208.993 189.418 209.99 191.13C210.91 192.714 212.367 194.682 214.156 195.168C217.248 195.986 216.992 196.497 218.142 199.666C219.292 202.809 222.155 203.32 225.758 207.026C229.387 210.757 228.927 214.667 228.927 214.667Z" fill="#436DEE"/>
<path opacity="0.26" d="M218.372 205.62C216.302 204.802 214.232 203.908 212.673 202.911C208.278 200.126 204.112 191.156 203.755 189.546C203.627 188.983 203.576 188.651 203.576 188.421C203.576 188.523 203.78 189.954 206.08 190.9C208.457 191.871 208.917 191.871 209.223 193.379C209.53 194.861 209.786 196.471 211.038 196.778C212.265 197.084 213.057 195.704 214.028 197.953C214.999 200.228 215.485 200.994 216.379 201.301C217.273 201.608 217.963 201.148 218.168 202.911C218.27 203.984 218.347 204.981 218.372 205.62Z" fill="white"/>
<path d="M229.157 229.617C224.991 229.617 223.228 226.269 222.512 222.742C226.601 221.183 231.763 218.704 236.031 214.948C236.287 217.478 237.13 229.617 229.157 229.617Z" fill="#CCE9FF"/>
<path d="M49.8588 229.617C54.8677 229.617 56.9888 225.604 57.8066 221.362C58.7521 216.583 58.0621 211.472 58.0621 211.472H41.6554C41.6554 211.472 41.6299 211.677 41.6043 212.009C41.2721 215.05 40.2755 229.617 49.8588 229.617Z" fill="#B6E7FF"/>
<path d="M41.6299 211.498C41.6299 211.856 45.3099 212.137 49.8332 212.137C54.3566 212.137 58.0366 211.856 58.0366 211.498C58.0366 211.14 54.3566 210.859 49.8332 210.859C45.3099 210.859 41.6299 211.14 41.6299 211.498Z" fill="#85DDFF"/>
<path d="M27.6255 166.009C27.6255 166.009 36.2888 179.17 41.4766 187.22C46.6644 195.27 48.0188 196.931 48.6577 199.512C49.2711 202.119 49.8333 211.702 49.8333 211.702H50.2166C50.2166 211.702 50.0888 203.576 49.6033 200.841C49.1433 198.183 49.6288 197.238 50.0122 194.452C50.3955 191.667 50.8811 187.22 48.0699 184.128C45.2588 181.036 45.9999 178.02 45.0033 175.976C44.0066 173.931 36.3399 171.452 35.3688 169.357C34.3722 167.236 30.0277 165.932 27.6255 166.009Z" fill="#436DEE"/>
<path opacity="0.26" d="M27.6255 166.01C27.6255 166.01 30.3344 169.102 32.1999 170.15C34.0655 171.198 34.9088 170.278 36.3399 172.808C37.771 175.338 37.8222 176.462 39.1255 177.765C40.4288 179.069 41.9622 179.12 42.0899 181.956C42.2177 184.793 41.4766 187.221 41.4766 187.221C41.4766 187.221 28.1877 166.674 27.6255 166.01Z" fill="white"/>
<path d="M49.1435 211.677H48.7602C48.7602 211.677 48.6324 209.044 47.6102 207.767C46.9458 206.949 44.0835 206.003 41.2469 204.879C39.688 204.266 38.1291 203.576 36.9791 202.834C33.6824 200.739 30.5391 193.992 30.2835 192.791C30.1813 192.382 30.1558 192.127 30.1558 191.948C30.1558 191.616 30.3346 191.564 30.5902 191.258C30.718 191.104 31.1269 191.156 31.6124 191.309C33.0435 191.743 34.2191 192.714 34.9602 193.992C35.6502 195.193 36.7491 196.676 38.078 197.033C40.4035 197.647 40.1991 198.03 41.068 200.407C41.9113 202.758 44.0835 203.167 46.7924 205.952C49.4758 208.738 49.1435 211.677 49.1435 211.677Z" fill="#436DEE"/>
<path opacity="0.26" d="M41.221 204.904C39.6621 204.291 38.1032 203.601 36.9532 202.86C33.6566 200.764 30.5132 194.018 30.2577 192.817C30.1554 192.408 30.1299 192.152 30.1299 191.973C30.1299 192.05 30.2832 193.123 31.9954 193.839C33.7843 194.58 34.1166 194.58 34.3466 195.704C34.5766 196.829 34.781 198.03 35.701 198.26C36.621 198.49 37.2088 197.442 37.9499 199.154C38.691 200.867 39.0488 201.429 39.7132 201.659C40.3777 201.889 40.9143 201.531 41.0421 202.86C41.1443 203.652 41.1954 204.419 41.221 204.904Z" fill="white"/>
<path d="M51.9802 211.677H52.4402C52.4402 211.677 53.3346 195.372 54.5868 193.864C55.379 192.893 58.0113 191.13 61.3846 189.801C63.2246 189.06 65.0646 188.268 66.4446 187.399C70.3546 184.92 74.0602 176.947 74.3668 175.516C74.4691 175.03 74.5202 174.723 74.5202 174.519C74.5202 174.136 74.3157 174.084 73.9835 173.701C73.8302 173.522 73.3446 173.573 72.7824 173.752C71.0957 174.263 69.6902 175.413 68.7957 176.947C67.9779 178.352 66.6746 180.116 65.0902 180.55C62.3302 181.291 62.5602 181.751 61.5635 184.537C60.5413 187.348 57.9857 187.782 54.7913 191.104C51.5713 194.376 51.9802 211.677 51.9802 211.677Z" fill="#436DEE"/>
<path opacity="0.26" d="M61.3589 189.827C63.1989 189.086 65.0389 188.293 66.4189 187.424C70.3289 184.946 74.0344 176.972 74.3411 175.541C74.4433 175.056 74.4944 174.749 74.4944 174.544C74.4944 174.647 74.29 175.899 72.2711 176.742C70.1755 177.611 69.7411 177.611 69.4855 178.94C69.2044 180.269 68.9744 181.7 67.8756 181.956C66.7767 182.237 66.0867 180.984 65.2178 183.003C64.3489 185.022 63.94 185.712 63.1222 185.993C62.33 186.274 61.7167 185.866 61.5378 187.424C61.4611 188.344 61.3844 189.264 61.3589 189.827Z" fill="white"/>
<path d="M49.8588 229.617C54.8677 229.617 56.9888 225.604 57.8066 221.362C52.8999 219.497 46.7155 216.507 41.5788 212.009C41.2721 215.05 40.2755 229.617 49.8588 229.617Z" fill="#CCE9FF"/>
</svg>
